<svg width="20" height="20" fill="#fff" xmlns="http://www.w3.org/2000/svg"><path d="M20 10a9.944 9.944 0 01-2.923 7.071A9.905 9.905 0 0110.019 20c-2.05 0-4.02-.619-5.697-1.788A9.997 9.997 0 011.56 15.31v2.112H0v-4.688h4.678v1.563h-1.91a8.36 8.36 0 007.252 4.14c4.643 0 8.42-3.785 8.42-8.437H20zM9.941 1.562a8.36 8.36 0 017.253 4.141h-1.872v1.563h4.639V2.578h-1.56V4.69a9.998 9.998 0 00-2.762-2.902A9.909 9.909 0 009.942 0a9.847 9.847 0 00-7.04 2.93A9.97 9.97 0 000 10h1.56c0-4.652 3.76-8.438 8.381-8.438zM6.992 5.508L5.984 6.509c-.45.452-.498 1.079-.292 1.714.356 1.1.73 1.964 2.445 3.682 1.714 1.718 2.623 1.996 3.69 2.437.246.101.478.15.696.15.386 0 .727-.155 1.015-.443l1.004-1.01-2.579-2.588-1.33 1.303a10.859 10.859 0 01-1.247-1.1 13.166 13.166 0 01-1.17-1.309l1.29-1.304-2.514-2.533z"/></svg>