<svg width="21" height="20" viewBox="0 0 21 20" fill="none" xmlns="http://www.w3.org/2000/svg">
<path d="M17.6892 3.41451C17.2737 2.96607 16.7806 2.61033 16.2378 2.36763C15.6949 2.12492 15.1131 2 14.5255 2C13.9379 2 13.3561 2.12492 12.8132 2.36763C12.2705 2.61033 11.7773 2.96607 11.3619 3.41451L10.4998 4.34475L9.63772 3.41451C8.79866 2.50911 7.66067 2.00047 6.47407 2.00047C5.28747 2.00047 4.14947 2.50911 3.31043 3.41451C2.47137 4.31992 2 5.5479 2 6.82832C2 8.10875 2.47137 9.33673 3.31043 10.2421L4.1725 11.1724L10.4998 18L16.8271 11.1724L17.6892 10.2421C18.1047 9.79387 18.4344 9.2617 18.6593 8.67591C18.8843 8.0902 19 7.46237 19 6.82832C19 6.19428 18.8843 5.56645 18.6593 4.98069C18.4344 4.39494 18.1047 3.86275 17.6892 3.41451Z" stroke="black" stroke-width="2" stroke-linecap="round" stroke-linejoin="round"/>
</svg>
