<svg width="242" height="26" viewBox="0 0 242 26" fill="none" xmlns="http://www.w3.org/2000/svg">
<path d="M20.852 3.904C19.796 3.688 18.668 3.484 17.468 3.292C16.292 3.1 14.924 2.98 13.364 2.932C11.78 2.956 10.412 3.196 9.26 3.652C8.108 4.108 7.16 4.768 6.416 5.632C5.696 6.472 5.156 7.48 4.796 8.656C4.436 9.832 4.256 11.128 4.256 12.544C4.256 14.368 4.484 15.928 4.94 17.224C5.42 18.52 6.068 19.588 6.884 20.428C7.724 21.244 8.696 21.844 9.8 22.228C10.904 22.612 12.092 22.804 13.364 22.804C14.18 22.804 14.912 22.756 15.56 22.66C16.232 22.564 16.808 22.456 17.288 22.336C17.792 22.192 18.248 22.036 18.656 21.868V15.28H14.156V12.58H21.716V23.344C20.876 23.896 19.712 24.4 18.224 24.856C16.76 25.288 15.14 25.492 13.364 25.468C11.732 25.468 10.16 25.276 8.648 24.892C7.16 24.508 5.828 23.836 4.652 22.876C3.5 21.892 2.576 20.56 1.88 18.88C1.184 17.2 0.836 15.076 0.836 12.508C0.836 10.42 1.16 8.608 1.808 7.072C2.456 5.512 3.332 4.228 4.436 3.22C5.564 2.188 6.86 1.42 8.324 0.915999C9.812 0.387999 11.384 0.123998 13.04 0.123998C14.12 0.123998 15.164 0.183998 16.172 0.303998C17.18 0.399998 18.104 0.519998 18.944 0.663998C19.784 0.783999 20.588 0.939999 21.356 1.132L20.852 3.904ZM33.0338 0.447999H36.7778L45.2018 25H42.0698L39.9098 18.448H29.9378L27.7418 25H24.6098L33.0338 0.447999ZM38.9378 15.568L34.9778 3.328H34.8698L30.8738 15.568H38.9378ZM52.0904 22.228H56.9504C58.2704 22.228 59.5064 22.06 60.6584 21.724C61.8344 21.388 62.8544 20.848 63.7184 20.104C64.6064 19.336 65.3024 18.34 65.8064 17.116C66.3104 15.892 66.5624 14.404 66.5624 12.652C66.5624 11.02 66.3344 9.616 65.8784 8.44C65.4224 7.24 64.7744 6.256 63.9344 5.488C63.1184 4.72 62.1104 4.156 60.9104 3.796C59.7344 3.412 58.4144 3.22 56.9504 3.22H52.0904V22.228ZM49.0664 0.447999H56.9504C58.8944 0.447999 60.6464 0.687998 62.2064 1.168C63.7904 1.648 65.1464 2.392 66.2744 3.4C67.4024 4.408 68.2664 5.68 68.8664 7.216C69.4904 8.752 69.8024 10.564 69.8024 12.652C69.8024 14.764 69.4664 16.6 68.7944 18.16C68.1224 19.696 67.2104 20.98 66.0584 22.012C64.9064 23.02 63.5504 23.776 61.9904 24.28C60.4304 24.76 58.7504 25 56.9504 25H49.0664V0.447999ZM93.4848 3.904C92.4288 3.688 91.3008 3.484 90.1008 3.292C88.9248 3.1 87.5568 2.98 85.9968 2.932C84.4128 2.956 83.0448 3.196 81.8928 3.652C80.7408 4.108 79.7928 4.768 79.0488 5.632C78.3288 6.472 77.7888 7.48 77.4288 8.656C77.0688 9.832 76.8888 11.128 76.8888 12.544C76.8888 14.368 77.1168 15.928 77.5728 17.224C78.0528 18.52 78.7008 19.588 79.5168 20.428C80.3568 21.244 81.3288 21.844 82.4328 22.228C83.5368 22.612 84.7248 22.804 85.9968 22.804C86.8128 22.804 87.5448 22.756 88.1928 22.66C88.8648 22.564 89.4408 22.456 89.9208 22.336C90.4248 22.192 90.8808 22.036 91.2888 21.868V15.28H86.7888V12.58H94.3488V23.344C93.5088 23.896 92.3448 24.4 90.8568 24.856C89.3928 25.288 87.7728 25.492 85.9968 25.468C84.3648 25.468 82.7928 25.276 81.2808 24.892C79.7928 24.508 78.4608 23.836 77.2848 22.876C76.1328 21.892 75.2088 20.56 74.5128 18.88C73.8168 17.2 73.4688 15.076 73.4688 12.508C73.4688 10.42 73.7928 8.608 74.4408 7.072C75.0888 5.512 75.9648 4.228 77.0688 3.22C78.1968 2.188 79.4928 1.42 80.9568 0.915999C82.4448 0.387999 84.0168 0.123998 85.6728 0.123998C86.7528 0.123998 87.7968 0.183998 88.8048 0.303998C89.8128 0.399998 90.7368 0.519998 91.5768 0.663998C92.4168 0.783999 93.2208 0.939999 93.9888 1.132L93.4848 3.904ZM99.7266 0.447999H114.775V3.22H102.751V11.068H113.911V13.768H102.751V22.228H115.135V25H99.7266V0.447999ZM125.195 3.256H117.491V0.447999H135.923V3.256H128.219V25H125.195V3.256ZM152.263 3.832C151.687 3.688 151.087 3.556 150.463 3.436C149.911 3.316 149.275 3.22 148.555 3.148C147.859 3.052 147.127 3.004 146.359 3.004C144.583 3.004 143.311 3.28 142.543 3.832C141.775 4.36 141.391 5.188 141.391 6.316C141.415 7.204 141.739 7.96 142.363 8.584C142.987 9.184 143.767 9.748 144.703 10.276C145.639 10.78 146.659 11.284 147.763 11.788C148.891 12.268 149.923 12.832 150.859 13.48C151.795 14.104 152.575 14.848 153.199 15.712C153.847 16.552 154.171 17.584 154.171 18.808C154.171 20.224 153.859 21.364 153.235 22.228C152.635 23.092 151.867 23.764 150.931 24.244C149.995 24.724 148.963 25.048 147.835 25.216C146.731 25.384 145.675 25.468 144.667 25.468C143.707 25.468 142.831 25.408 142.039 25.288C141.247 25.168 140.563 25.036 139.987 24.892C139.315 24.724 138.703 24.532 138.151 24.316L138.871 21.4C139.423 21.64 140.011 21.844 140.635 22.012C141.187 22.156 141.799 22.288 142.471 22.408C143.167 22.528 143.899 22.588 144.667 22.588C145.603 22.588 146.455 22.528 147.223 22.408C148.015 22.288 148.699 22.096 149.275 21.832C149.851 21.568 150.295 21.22 150.607 20.788C150.943 20.356 151.111 19.828 151.111 19.204C151.087 18.268 150.775 17.512 150.175 16.936C149.599 16.336 148.819 15.772 147.835 15.244C146.875 14.692 145.831 14.164 144.703 13.66C143.599 13.156 142.579 12.58 141.643 11.932C140.707 11.284 139.915 10.516 139.267 9.628C138.643 8.74 138.331 7.636 138.331 6.316C138.331 5.548 138.463 4.792 138.727 4.048C138.991 3.304 139.435 2.644 140.059 2.068C140.707 1.492 141.535 1.024 142.543 0.663998C143.575 0.303998 144.847 0.123998 146.359 0.123998C147.223 0.123998 148.039 0.171999 148.807 0.267999C149.599 0.339999 150.283 0.424 150.859 0.52C151.531 0.64 152.167 0.771999 152.767 0.915999L152.263 3.832ZM163.796 3.256H156.092V0.447999H174.524V3.256H166.82V25H163.796V3.256ZM176.16 12.724C176.16 10.396 176.52 8.428 177.24 6.82C177.984 5.212 178.92 3.916 180.048 2.932C181.2 1.948 182.472 1.24 183.864 0.807998C185.28 0.351998 186.66 0.123998 188.004 0.123998C189.348 0.123998 190.716 0.315999 192.108 0.7C193.524 1.06 194.796 1.72 195.924 2.68C197.076 3.616 198.012 4.9 198.732 6.532C199.476 8.164 199.848 10.24 199.848 12.76C199.848 15.112 199.476 17.092 198.732 18.7C198.012 20.308 197.076 21.616 195.924 22.624C194.796 23.632 193.524 24.364 192.108 24.82C190.716 25.252 189.348 25.468 188.004 25.468C186.66 25.468 185.28 25.252 183.864 24.82C182.472 24.388 181.2 23.68 180.048 22.696C178.92 21.712 177.984 20.404 177.24 18.772C176.52 17.14 176.16 15.124 176.16 12.724ZM196.428 12.904C196.428 9.664 195.672 7.204 194.16 5.524C192.672 3.844 190.668 3.004 188.148 3.004C186.876 3.004 185.712 3.208 184.656 3.616C183.624 4 182.724 4.588 181.956 5.38C181.212 6.172 180.624 7.168 180.192 8.368C179.784 9.544 179.58 10.936 179.58 12.544C179.58 15.784 180.324 18.268 181.812 19.996C183.324 21.724 185.34 22.588 187.86 22.588C189.108 22.588 190.26 22.396 191.316 22.012C192.372 21.604 193.272 20.992 194.016 20.176C194.784 19.36 195.372 18.352 195.78 17.152C196.212 15.952 196.428 14.536 196.428 12.904ZM204.844 0.447999H210.892C212.212 0.447999 213.412 0.567998 214.492 0.807998C215.596 1.024 216.532 1.408 217.3 1.96C218.068 2.488 218.656 3.196 219.064 4.084C219.472 4.972 219.676 6.088 219.676 7.432C219.652 8.92 219.4 10.132 218.92 11.068C218.44 11.98 217.852 12.724 217.156 13.3C216.46 13.852 215.656 14.26 214.744 14.524V14.596C214.84 14.692 214.984 14.872 215.176 15.136C215.392 15.376 215.572 15.592 215.716 15.784L222.664 25H219.1L211.972 15.244H207.868V25H204.844V0.447999ZM216.616 7.936C216.616 6.928 216.484 6.112 216.22 5.488C215.98 4.84 215.608 4.348 215.104 4.012C214.624 3.676 214.024 3.448 213.304 3.328C212.584 3.208 211.768 3.148 210.856 3.148H207.868V12.544H211.432C212.368 12.544 213.16 12.424 213.808 12.184C214.456 11.944 214.984 11.62 215.392 11.212C215.8 10.78 216.1 10.288 216.292 9.736C216.484 9.184 216.592 8.584 216.616 7.936ZM225.691 0.447999H240.739V3.22H228.715V11.068H239.875V13.768H228.715V22.228H241.099V25H225.691V0.447999Z" fill="black" fill-opacity="0.75"/>
</svg>
