<svg width="100" height="100" viewBox="0 0 100 100" fill="none" xmlns="http://www.w3.org/2000/svg">
<path d="M76.788 56.3461C74.1952 57.5549 67.798 75.0033 67.798 75.0033C65.5295 81.9334 67.3185 91.0796 70.1236 98.9986C70.2626 99.391 69.9724 99.803 69.56 99.803L66.9095 99.9998H36.4491C36.1651 99.9998 35.9197 99.7984 35.8631 99.5171C34.6363 93.4419 32.6517 85.0227 23.4469 86.2829C19.0832 86.8802 14.7948 87.6064 12.7237 87.2638C9.77186 86.7759 6.82957 85.4654 5.96636 81.9232C5.4065 79.6257 6.22744 78.3236 6.82958 77.2366C7.15408 76.6507 6.86587 75.8745 6.39797 75.5471C5.93225 75.2213 5.40011 74.9937 4.98306 74.847C4.3165 74.6126 3.87293 73.9534 3.92339 73.2425C3.96607 72.6399 4.25926 71.9116 5.1518 71.2051C5.24434 71.1319 5.2597 71.0026 5.18311 70.9125C4.91565 70.5979 4.2461 69.8635 3.11562 68.9529C3.10185 68.9418 3.08849 68.9309 3.07533 68.9199C2.28431 68.2591 2.32579 67.0181 3.14533 66.3933C4.43657 65.4088 7.38005 62.7692 3.59848 61.5947C1.14664 60.8328 0.00419708 59.6289 8.63403e-06 57.7858C-0.00338202 56.2055 0.992269 55.2985 2.29747 54.2836C4.53749 52.5416 6.41013 50.7166 7.90242 48.0332C8.27599 47.3617 8.32983 46.5457 8.03086 45.8371C7.31104 44.1308 5.48628 42.3568 5.88458 40.6292C6.21148 39.2111 7.65868 37.5725 7.87768 34.1813C8.79774 19.9291 19.2505 11.3449 32.26 8.72305C33.7088 8.43112 35.1768 8.24376 36.6505 8.13779L37.7397 8.05942L39.9895 8.90114L55.4469 6.78577L76.788 56.3461Z" fill="#FFCEBF"/>
<path d="M27.5081 34.1568C27.5081 24.0734 31.3974 14.8911 37.7399 8.05942L55.4471 6.78577L76.7882 56.3461C74.8751 57.238 71.7701 66.9703 70.2734 72.0121C70.2736 72.0123 70.2742 72.0139 70.2742 72.0139C70.2738 72.0139 70.2732 72.0139 70.2728 72.0142C69.7415 73.8044 69.4126 75.0037 69.4126 75.0037C67.1428 81.9341 67.799 91.276 70.6033 99.1956C70.7429 99.5885 70.4517 99.9994 70.0388 99.9994L66.9095 100C63.6062 91.1003 63.1738 82.1615 65.6809 73.887C65.9126 73.1222 65.3474 72.3488 64.5558 72.335C44.1742 71.9755 27.4812 54.9521 27.5081 34.1568Z" fill="#FFB09E"/>
<path d="M31.4973 34.1562C31.4973 15.2922 46.6366 0 65.3119 0C74.9692 0 83.681 4.08933 89.8426 10.6472C89.8426 10.6472 90.9195 12.0595 91.5092 12.8019C96.1558 18.6512 98.1824 26.0729 98.1824 34.1562C98.1824 53.0201 83.9952 66.9958 65.3198 66.9958C55.194 66.9958 46.3312 63.6858 40.1339 56.5626C39.7011 56.0649 38.9364 55.2974 38.4296 54.7639C38.1155 54.4331 37.9124 54.1773 37.9124 54.1773C33.8768 48.5516 31.4973 41.6344 31.4973 34.1562Z" fill="#F9F8F9"/>
<path d="M37.8853 54.1399C44.0284 62.7264 54.0248 68.313 65.3117 68.313C83.9862 68.313 99.1265 53.0198 99.1265 34.1567C99.1265 24.9961 95.5563 16.6796 89.7463 10.5471C93.7652 16.1659 96.1347 23.0681 96.1347 30.5303C96.1347 49.3935 80.9945 64.6866 62.32 64.6866C52.7125 64.6866 44.0404 60.6392 37.8853 54.1399Z" fill="#E8E8E8"/>
<path d="M42.802 30.3048C42.802 29.3172 42.8989 28.3544 43.081 27.4209C43.1141 27.2513 43.0391 27.0795 42.8909 26.9928L39.8326 25.2095C39.6417 25.0983 39.5765 24.8519 39.6866 24.6591L43.7653 17.5202C43.8754 17.3274 44.1195 17.2613 44.3102 17.3727L47.37 19.1575C47.5186 19.2442 47.7037 19.2233 47.8327 19.1091C49.2618 17.8435 50.9371 16.8566 52.7753 16.2241C52.9374 16.1684 53.0477 16.0169 53.0477 15.8437V12.2777C53.0477 12.0551 53.2262 11.8748 53.4466 11.8748H61.6061C61.8265 11.8748 62.005 12.0551 62.005 12.2777V15.8439C62.005 16.0171 62.1153 16.1686 62.2777 16.2244C64.1174 16.8568 65.7916 17.8437 67.222 19.1095C67.3511 19.2235 67.5362 19.2444 67.6846 19.1577L67.9243 19.0179L70.699 18.0166C70.8899 17.9052 71.1338 17.9712 71.2439 18.1641L74.3945 24.5235C74.5045 24.7163 74.4391 24.9627 74.2485 25.0738L71.67 26.8962C71.5178 26.985 71.4436 27.1636 71.4815 27.3372C71.6961 28.3183 71.8379 29.3139 71.8379 30.3046C71.8379 31.2923 72.1556 32.2549 71.9735 33.1883C71.9404 33.3579 72.0154 33.5298 72.1636 33.6164L75.222 35.3998C75.4128 35.511 75.4781 35.7574 75.368 35.9502L71.289 43.0891C71.1789 43.2818 70.9348 43.348 70.7441 43.2366L67.6858 41.4523C67.5366 41.3654 67.3503 41.3859 67.2212 41.5011C65.7978 42.7735 63.832 43.5879 62.0014 44.098C61.8261 44.1468 61.7025 44.3037 61.7025 44.4875L61.7084 47.8566C61.7084 48.0791 61.5299 48.2595 61.3095 48.2595L53.739 48.3708C53.5186 48.3708 53.3401 48.1905 53.3401 47.968L53.4843 44.5773C53.4843 44.4043 53.374 44.2527 53.2119 44.1969C52.3353 43.8954 51.0762 43.5595 50.2825 43.105C49.5839 42.7047 48.2829 41.8827 48.2829 41.8827C48.1303 41.7582 47.9801 41.6305 47.8327 41.4999C47.7037 41.3857 47.5186 41.365 47.37 41.4515L44.3102 43.2364C44.1193 43.3476 43.8754 43.2816 43.7653 43.0889L39.6866 35.95C39.5765 35.7572 39.6419 35.5108 39.8326 35.3996L42.8909 33.6162C43.0393 33.5298 43.1141 33.3579 43.081 33.1881C42.8989 32.2551 42.802 31.2923 42.802 30.3048ZM57.5274 38.6172C62.0728 38.6172 65.7567 34.8961 65.7567 30.3048C65.7567 25.7133 62.0728 21.9923 57.5274 21.9923C52.9819 21.9923 49.2981 25.7133 49.2981 30.3048C49.2981 34.8961 52.9819 38.6172 57.5274 38.6172Z" fill="#407093"/>
<path d="M69.5116 39.6668C69.6823 39.6668 69.8315 39.5562 69.8886 39.3937C70.0737 38.8672 70.3072 38.3494 70.5928 37.8476C70.8802 37.3462 71.2065 36.8828 71.5659 36.4587C71.6772 36.3273 71.698 36.1412 71.6122 35.9913L70.6367 34.2861C70.5264 34.0934 70.5918 33.8469 70.7827 33.7355L74.9382 31.312C75.1291 31.2009 75.373 31.267 75.4831 31.4597L76.4571 33.165C76.5426 33.3147 76.7126 33.3898 76.8807 33.3582C77.9799 33.1514 79.1179 33.1476 80.2374 33.3568C80.4054 33.3882 80.5749 33.3133 80.6603 33.164L81.6362 31.4593C81.7465 31.2668 81.9904 31.2009 82.1811 31.312L86.335 33.7357C86.5257 33.8469 86.5911 34.0934 86.481 34.2861L85.5071 35.9899C85.4217 36.1394 85.4423 36.3254 85.5532 36.4565C85.7331 36.6692 85.9026 36.889 86.0614 37.1153C86.0614 37.1153 86.3877 37.8681 86.5841 38.2528C86.7768 38.6299 87.0012 39.1124 87.1404 39.5109C87.1972 39.6739 87.3466 39.7851 87.5178 39.7851L89.3042 39.9307C89.5246 39.9307 89.7031 40.111 89.7031 40.3337L89.7923 44.6415C89.7923 44.8642 89.6138 45.0445 89.3934 45.0445L87.3985 45.1479C87.2274 45.1479 87.078 45.2591 87.0211 45.4221C86.8374 45.9483 86.5361 46.3905 86.2489 46.892C85.9615 47.3934 85.5512 48.0752 85.1918 48.4992C85.0805 48.6306 85.0597 48.8167 85.1455 48.9666L86.2844 50.6622C86.3947 50.855 86.3292 51.1013 86.1384 51.2128L82.1833 53.3646C81.9924 53.4758 81.7485 53.4097 81.6384 53.2169L80.7574 51.5641C80.6718 51.4145 80.5019 51.3393 80.3336 51.3711C79.236 51.5778 77.8552 51.6017 76.7345 51.3927C76.5666 51.3612 76.397 51.4364 76.3117 51.5857L75.4205 53.0987C75.3104 53.2914 75.0665 53.3573 74.8756 53.2462L71.1541 51.0776C70.9632 50.9664 70.898 50.7197 71.0081 50.5272L71.2556 49.6174L71.6104 48.9965C71.6958 48.847 71.6752 48.661 71.5643 48.5298C70.8242 47.6541 70.2603 46.6564 69.888 45.5933C69.8309 45.4305 69.6817 45.3195 69.5108 45.3195H67.561C67.3406 45.3195 67.1621 45.1392 67.1621 44.9166V40.0693C67.1621 39.8467 67.3406 39.6664 67.561 39.6664H69.5116V39.6668ZM78.5591 45.5154C80.2105 45.5154 81.5508 44.1615 81.5508 42.4934C81.5508 40.8253 80.2105 39.4714 78.5591 39.4714C76.9076 39.4714 75.5673 40.8253 75.5673 42.4934C75.5673 44.1615 76.9076 45.5154 78.5591 45.5154Z" fill="#2B4D66"/>
</svg>
