<svg width="20" height="20" viewBox="0 0 20 20" fill="black" xmlns="http://www.w3.org/2000/svg">
<path d="M19.7326 14.5688L14.468 9.30417L17.0499 6.72222C17.2736 6.49852 17.3656 6.17493 17.2929 5.86701C17.2202 5.55909 16.9933 5.31083 16.6932 5.21075L1.20156 0.0468549C0.873658 -0.0624751 0.511943 0.0229361 0.26744 0.26744C0.0229361 0.511943 -0.0624751 0.873566 0.0468549 1.20156L5.21075 16.6932C5.31092 16.9934 5.55918 17.2203 5.86701 17.293C6.17493 17.3658 6.49852 17.2738 6.72231 17.05L9.30426 14.4681L14.5688 19.7326C14.7471 19.9108 14.9807 20 15.2143 20C15.4478 20 15.6815 19.9109 15.8598 19.7326L19.7327 15.8597C20.0892 15.5032 20.0892 14.9253 19.7326 14.5688ZM15.2142 17.7962L9.94961 12.5316C9.59321 12.1752 9.01513 12.1752 8.65864 12.5316L6.4757 14.7146L2.35626 2.35626L14.7146 6.4757L12.5316 8.65873C12.1754 9.01485 12.1751 9.59321 12.5316 9.9497L17.7962 15.2142L15.2142 17.7962Z"/>
</svg>
