<svg width="182" height="20" viewBox="0 0 182 20" fill="black" xmlns="http://www.w3.org/2000/svg">
<path d="M15.8387 2.95874C15.0451 2.79641 14.1974 2.64311 13.2956 2.49882C12.4118 2.35453 11.3837 2.26435 10.2114 2.22828C9.021 2.24631 7.99294 2.42667 7.1272 2.76936C6.26147 3.11205 5.54904 3.60804 4.98992 4.25734C4.44883 4.88861 4.04302 5.64613 3.77248 6.5299C3.50193 7.41367 3.36666 8.38763 3.36666 9.45176C3.36666 10.8225 3.53801 11.9949 3.88069 12.9688C4.24142 13.9428 4.72839 14.7454 5.34162 15.3766C5.97289 15.9899 6.70335 16.4408 7.53302 16.7294C8.36268 17.0179 9.25547 17.1622 10.2114 17.1622C10.8246 17.1622 11.3747 17.1262 11.8617 17.054C12.3667 16.9819 12.7996 16.9007 13.1603 16.8105C13.5391 16.7023 13.8817 16.5851 14.1884 16.4588V11.5079H10.8066V9.47882H16.488V17.568C15.8567 17.9829 14.982 18.3616 13.8637 18.7043C12.7635 19.029 11.5461 19.1823 10.2114 19.1642C8.98493 19.1642 7.80356 19.0199 6.66728 18.7314C5.54904 18.4428 4.54803 17.9378 3.66426 17.2163C2.79852 16.4768 2.10413 15.4758 1.58108 14.2133C1.05803 12.9508 0.796509 11.3546 0.796509 9.42471C0.796509 7.85556 1.04 6.49383 1.52697 5.33951C2.01395 4.16716 2.67227 3.20223 3.50193 2.44471C4.34963 1.66915 5.32359 1.092 6.42379 0.713236C7.54204 0.316441 8.7234 0.118042 9.9679 0.118042C10.7795 0.118042 11.5641 0.163132 12.3216 0.253313C13.0791 0.325458 13.7735 0.415639 14.4048 0.523856C15.0361 0.614037 15.6403 0.731272 16.2174 0.875563L15.8387 2.95874ZM24.9934 0.361531H27.807L34.1377 18.8125H31.784L30.1607 13.8887H22.6667L21.0164 18.8125H18.6627L24.9934 0.361531ZM29.4303 11.7243L26.4543 2.52587H26.3731L23.3701 11.7243H29.4303ZM39.3145 16.7294H42.9669C43.9589 16.7294 44.8877 16.6031 45.7535 16.3506C46.6372 16.0981 47.4038 15.6923 48.0531 15.1332C48.7204 14.556 49.2435 13.8075 49.6222 12.8877C50.001 11.9678 50.1904 10.8496 50.1904 9.53292C50.1904 8.30647 50.019 7.25135 49.6763 6.36758C49.3336 5.46577 48.8467 4.72628 48.2154 4.14913C47.6022 3.57197 46.8446 3.14812 45.9428 2.87758C45.0591 2.589 44.0671 2.44471 42.9669 2.44471H39.3145V16.7294ZM37.042 0.361531H42.9669C44.4278 0.361531 45.7444 0.541892 46.9168 0.902617C48.1072 1.26334 49.1262 1.82246 49.9739 2.57998C50.8216 3.3375 51.4709 4.29342 51.9218 5.44773C52.3908 6.60205 52.6252 7.96378 52.6252 9.53292C52.6252 11.1201 52.3727 12.4999 51.8677 13.6722C51.3627 14.8265 50.6773 15.7915 49.8116 16.567C48.9459 17.3245 47.9268 17.8927 46.7545 18.2714C45.5821 18.6322 44.3196 18.8125 42.9669 18.8125H37.042V0.361531ZM70.4227 2.95874C69.6291 2.79641 68.7814 2.64311 67.8796 2.49882C66.9958 2.35453 65.9678 2.26435 64.7954 2.22828C63.6051 2.24631 62.577 2.42667 61.7113 2.76936C60.8455 3.11205 60.1331 3.60804 59.574 4.25734C59.0329 4.88861 58.6271 5.64613 58.3565 6.5299C58.086 7.41367 57.9507 8.38763 57.9507 9.45176C57.9507 10.8225 58.1221 11.9949 58.4647 12.9688C58.8255 13.9428 59.3124 14.7454 59.9257 15.3766C60.5569 15.9899 61.2874 16.4408 62.1171 16.7294C62.9467 17.0179 63.8395 17.1622 64.7954 17.1622C65.4087 17.1622 65.9588 17.1262 66.4458 17.054C66.9508 16.9819 67.3836 16.9007 67.7444 16.8105C68.1231 16.7023 68.4658 16.5851 68.7724 16.4588V11.5079H65.3906V9.47882H71.072V17.568C70.4408 17.9829 69.566 18.3616 68.4478 18.7043C67.3476 19.029 66.1301 19.1823 64.7954 19.1642C63.569 19.1642 62.3876 19.0199 61.2513 18.7314C60.1331 18.4428 59.1321 17.9378 58.2483 17.2163C57.3826 16.4768 56.6882 15.4758 56.1651 14.2133C55.6421 12.9508 55.3806 11.3546 55.3806 9.42471C55.3806 7.85556 55.6241 6.49383 56.111 5.33951C56.598 4.16716 57.2563 3.20223 58.086 2.44471C58.9337 1.66915 59.9076 1.092 61.0078 0.713236C62.1261 0.316441 63.3075 0.118042 64.552 0.118042C65.3636 0.118042 66.1481 0.163132 66.9057 0.253313C67.6632 0.325458 68.3576 0.415639 68.9888 0.523856C69.6201 0.614037 70.2243 0.731272 70.8015 0.875563L70.4227 2.95874ZM75.1135 0.361531H86.4225V2.44471H77.3863V8.34254H85.7732V10.3716H77.3863V16.7294H86.693V18.8125H75.1135V0.361531ZM94.2532 2.47176H88.4635V0.361531H102.315V2.47176H96.5257V18.8125H94.2532V2.47176ZM114.595 2.90463C114.162 2.79641 113.711 2.69722 113.242 2.60703C112.827 2.51685 112.349 2.44471 111.808 2.3906C111.285 2.31846 110.735 2.28238 110.158 2.28238C108.823 2.28238 107.867 2.4898 107.29 2.90463C106.713 3.30143 106.425 3.92368 106.425 4.77138C106.443 5.43871 106.686 6.00685 107.155 6.47579C107.624 6.9267 108.21 7.35055 108.914 7.74734C109.617 8.1261 110.383 8.50486 111.213 8.88362C112.061 9.24435 112.836 9.66819 113.54 10.1552C114.243 10.6241 114.829 11.1832 115.298 11.8325C115.785 12.4638 116.029 13.2394 116.029 14.1592C116.029 15.2233 115.794 16.0801 115.325 16.7294C114.875 17.3787 114.297 17.8837 113.594 18.2444C112.891 18.6051 112.115 18.8486 111.267 18.9749C110.438 19.1011 109.644 19.1642 108.887 19.1642C108.165 19.1642 107.507 19.1191 106.912 19.029C106.316 18.9388 105.802 18.8396 105.369 18.7314C104.864 18.6051 104.405 18.4608 103.99 18.2985L104.531 16.1071C104.946 16.2875 105.387 16.4408 105.856 16.567C106.271 16.6752 106.731 16.7744 107.236 16.8646C107.759 16.9548 108.309 16.9999 108.887 16.9999C109.59 16.9999 110.23 16.9548 110.807 16.8646C111.403 16.7744 111.917 16.6302 112.349 16.4318C112.782 16.2334 113.116 15.9718 113.35 15.6472C113.603 15.3225 113.729 14.9257 113.729 14.4568C113.711 13.7534 113.477 13.1852 113.026 12.7524C112.593 12.3015 112.007 11.8776 111.267 11.4808C110.546 11.066 109.761 10.6692 108.914 10.2904C108.084 9.91168 107.317 9.47882 106.614 8.99184C105.911 8.50486 105.315 7.92771 104.828 7.26037C104.359 6.59303 104.125 5.76336 104.125 4.77138C104.125 4.19422 104.224 3.62608 104.423 3.06696C104.621 2.50784 104.955 2.01184 105.424 1.57897C105.911 1.14611 106.533 0.7944 107.29 0.523856C108.066 0.253313 109.022 0.118042 110.158 0.118042C110.807 0.118042 111.421 0.154115 111.998 0.22626C112.593 0.280368 113.107 0.343496 113.54 0.41564C114.045 0.505821 114.523 0.605019 114.974 0.713236L114.595 2.90463ZM123.262 2.47176H117.472V0.361531H131.324V2.47176H125.535V18.8125H123.262V2.47176ZM132.554 9.58703C132.554 7.83752 132.824 6.35856 133.365 5.15013C133.924 3.94171 134.628 2.96776 135.476 2.22828C136.341 1.48879 137.297 0.956725 138.343 0.632073C139.407 0.289386 140.445 0.118042 141.455 0.118042C142.465 0.118042 143.493 0.262332 144.539 0.550912C145.603 0.821454 146.559 1.31745 147.406 2.0389C148.272 2.74231 148.976 3.70724 149.517 4.9337C150.076 6.16016 150.355 7.72029 150.355 9.61409C150.355 11.3816 150.076 12.8696 149.517 14.078C148.976 15.2865 148.272 16.2694 147.406 17.027C146.559 17.7845 145.603 18.3346 144.539 18.6773C143.493 19.0019 142.465 19.1642 141.455 19.1642C140.445 19.1642 139.407 19.0019 138.343 18.6773C137.297 18.3526 136.341 17.8205 135.476 17.0811C134.628 16.3416 133.924 15.3586 133.365 14.1321C132.824 12.9057 132.554 11.3906 132.554 9.58703ZM147.785 9.7223C147.785 7.28742 147.217 5.43871 146.081 4.17618C144.963 2.91365 143.457 2.28238 141.563 2.28238C140.607 2.28238 139.732 2.43569 138.939 2.74231C138.163 3.03088 137.487 3.47277 136.909 4.06796C136.35 4.66316 135.908 5.41166 135.584 6.31347C135.277 7.19724 135.124 8.24334 135.124 9.45176C135.124 11.8866 135.683 13.7534 136.801 15.052C137.938 16.3506 139.453 16.9999 141.346 16.9999C142.284 16.9999 143.15 16.8556 143.944 16.567C144.737 16.2604 145.413 15.8005 145.973 15.1873C146.55 14.574 146.992 13.8165 147.298 12.9147C147.623 12.0129 147.785 10.9488 147.785 9.7223ZM154.11 0.361531H158.655C159.647 0.361531 160.549 0.451711 161.36 0.632073C162.19 0.7944 162.894 1.08298 163.471 1.49781C164.048 1.89461 164.49 2.42667 164.796 3.09401C165.103 3.76135 165.256 4.60003 165.256 5.61006C165.238 6.7283 165.049 7.63913 164.688 8.34254C164.327 9.02791 163.886 9.58703 163.362 10.0199C162.839 10.4347 162.235 10.7413 161.55 10.9397V10.9939C161.622 11.066 161.73 11.2013 161.874 11.3997C162.037 11.58 162.172 11.7424 162.28 11.8866L167.502 18.8125H164.823L159.467 11.4808H156.382V18.8125H154.11V0.361531ZM162.957 5.98882C162.957 5.2313 162.857 4.61807 162.659 4.14913C162.479 3.66215 162.199 3.29241 161.82 3.0399C161.46 2.7874 161.009 2.61605 160.468 2.52587C159.927 2.43569 159.313 2.3906 158.628 2.3906H156.382V9.45176H159.061C159.764 9.45176 160.359 9.36158 160.846 9.18122C161.333 9.00086 161.73 8.75737 162.037 8.45075C162.343 8.1261 162.569 7.75636 162.713 7.34153C162.857 6.9267 162.939 6.47579 162.957 5.98882ZM169.777 0.361531H181.085V2.44471H172.049V8.34254H180.436V10.3716H172.049V16.7294H181.356V18.8125H169.777V0.361531Z"/>
</svg>
