<svg width="30" height="20" viewBox="0 0 30 20" fill="black" xmlns="http://www.w3.org/2000/svg">
<path d="M0 10C0 10.5821 0.471814 11.0539 1.05392 11.0539H26.4339L19.7855 17.6961C19.5834 17.8983 19.4791 18.1679 19.4791 18.4375C19.4791 18.7071 19.5834 18.9768 19.7855 19.1789C20.1961 19.5895 20.864 19.5895 21.2745 19.1789L29.7059 10.7414C30.098 10.3493 30.098 9.65076 29.7059 9.25251L21.2684 0.821087C20.8579 0.410549 20.19 0.410549 19.7794 0.821087C19.3689 1.23162 19.3689 1.89952 19.7794 2.31006L26.4216 8.95226H1.04779C0.465686 8.94614 0 9.41789 0 10Z"/>
</svg>
