<svg width="23" height="20" viewBox="0 0 23 20" fill="black" stroke="black" stroke-width="0.2" xmlns="http://www.w3.org/2000/svg">
<path d="M1.67328 2.98559H21.5108C21.9374 2.98559 22.264 2.53936 22.264 2.0191C22.264 1.49876 21.9374 1.05261 21.5108 1.05261H1.67328C1.24666 1.05261 0.920044 1.49876 0.920044 2.0191C0.920044 2.53944 1.24666 2.98559 1.67328 2.98559Z"/>
<path d="M21.4188 9.55981H1.58123C1.15456 9.55981 0.828003 10.006 0.828003 10.5263C0.828003 11.0466 1.15462 11.4928 1.58123 11.4928H21.4188C21.8454 11.4928 22.172 11.0466 22.172 10.5263C22.172 10.006 21.8454 9.55981 21.4188 9.55981Z"/>
<path d="M21.5108 17.8948H1.67328C1.2466 17.8948 0.920044 18.341 0.920044 18.8612C0.920044 19.3816 1.24666 19.8277 1.67328 19.8277H21.5108C21.9374 19.8277 22.264 19.3815 22.264 18.8612C22.2641 18.3409 21.9374 17.8948 21.5108 17.8948Z"/>
</svg>
