<svg width="20" height="20" viewBox="0 0 20 20" fill="white" xmlns="http://www.w3.org/2000/svg">
<path d="M20 9.99994C20 12.6711 18.9618 15.1823 17.0768 17.071C15.1917 18.9598 12.6854 20 10.0195 20C7.9692 20 5.99918 19.3815 4.32237 18.2117C3.20527 17.4322 2.27017 16.4469 1.55946 15.31V17.4218H0V12.7344H4.67837V14.2968H2.76717C4.26393 16.8494 6.98432 18.4375 10.0195 18.4375C14.6629 18.4375 18.4406 14.6524 18.4406 9.99994H20ZM9.9415 1.56249C12.9767 1.56249 15.6971 3.15054 17.1938 5.70312H15.3217V7.26561H19.961V2.57812H18.4016V4.68988C17.6908 3.55308 16.7557 2.56765 15.6387 1.78828C13.9618 0.618397 11.9918 0 9.9415 0C7.27715 0 4.77719 1.04078 2.90211 2.93054C1.03068 4.81671 0 7.32733 0 9.99994H1.55946C1.55946 5.34753 5.31961 1.56249 9.9415 1.56249ZM6.99236 5.5078L5.98429 6.50944C5.53368 6.96085 5.48604 7.5876 5.69173 8.22319C6.04776 9.32346 6.42207 10.1874 8.13677 11.9051C9.85142 13.6227 10.7599 13.9009 11.8273 14.3417C12.0731 14.4432 12.3052 14.4921 12.5227 14.4921C12.9093 14.4921 13.2497 14.3375 13.5381 14.0487L14.5419 13.0389L11.963 10.4512L10.6332 11.754C10.2806 11.4956 9.88125 11.1493 9.38608 10.6532C8.88508 10.1514 8.50333 9.72524 8.21505 9.34508L9.506 8.04096L6.99236 5.5078Z"/>
</svg>
