<svg width="22" height="21" viewBox="0 0 22 21" fill="none"  stroke="white" stroke-width="2" stroke-linecap="round" stroke-linejoin="round" xmlns="http://www.w3.org/2000/svg">
<path d="M17.6667 19.6667C18.127 19.6667 18.5 19.2936 18.5 18.8333C18.5 18.3731 18.127 18 17.6667 18C17.2065 18 16.8334 18.3731 16.8334 18.8333C16.8334 19.2936 17.2065 19.6667 17.6667 19.6667Z"/>
<path d="M8.49996 19.6667C8.96019 19.6667 9.33329 19.2936 9.33329 18.8333C9.33329 18.3731 8.96019 18 8.49996 18C8.03973 18 7.66663 18.3731 7.66663 18.8333C7.66663 19.2936 8.03973 19.6667 8.49996 19.6667Z"/>
<path d="M1.83337 1.83337H5.16671L7.40004 12.9917C7.47624 13.3754 7.68497 13.72 7.98967 13.9653C8.29436 14.2105 8.67562 14.3409 9.06671 14.3334H17.1667C17.5578 14.3409 17.939 14.2105 18.2438 13.9653C18.5485 13.72 18.7572 13.3754 18.8334 12.9917L20.1667 6.00004H6.00004"/>
</svg>
