<svg width="15" height="15" viewBox="0 0 15 15" fill="black" stroke="white" stroke-width="0.6" xmlns="http://www.w3.org/2000/svg">
<path d="M5.62495 12.4337C5.86941 12.4337 6.10533 12.337 6.279 12.1627C6.27917 12.1625 6.27935 12.1623 6.27952 12.1622L13.5575 4.88353C14.0413 4.40061 14.041 3.61677 13.5577 3.13346L13.116 2.69177L12.9037 2.90372L13.1158 2.69158L13.1159 2.69169C12.633 2.20802 11.8492 2.2083 11.3659 2.69158L5.62495 8.43258L3.63396 6.44158C3.15055 5.95818 2.36748 5.95818 1.88407 6.44158L1.44238 6.88328C0.958626 7.3662 0.958887 8.15004 1.44219 8.63335L4.97038 12.1622C4.97053 12.1623 4.97069 12.1625 4.97084 12.1626C5.14451 12.337 5.38046 12.4337 5.62495 12.4337Z"/>
</svg>
