<svg width="20" height="20" viewBox="0 0 20 20" fill="black" xmlns="http://www.w3.org/2000/svg">
<g clip-path="url(#clip0)">
<path d="M11.4556 10.014L19.6753 1.83005C20.0694 1.43951 20.0694 0.807303 19.6753 0.417765C19.2823 0.0272311 18.6438 0.0272311 18.2507 0.417765L10.038 8.59473L1.74938 0.295889C1.3563 -0.0986297 0.717831 -0.0986297 0.324749 0.295889C-0.0683334 0.691404 -0.0683334 1.33158 0.324749 1.7261L8.60734 10.019L0.294812 18.2948C-0.0982706 18.6854 -0.0982706 19.3176 0.294812 19.7071C0.687894 20.0976 1.32636 20.0976 1.71944 19.7071L10.0249 11.4382L18.2806 19.7041C18.6736 20.0986 19.3121 20.0986 19.7052 19.7041C20.0983 19.3086 20.0983 18.6684 19.7052 18.2739L11.4556 10.014Z" />
</g>
<defs>
<clipPath id="clip0">
<rect width="20" height="20" fill="white"/>
</clipPath>
</defs>
</svg>
