<svg xmlns="http://www.w3.org/2000/svg" id="Capa_1" x="0" y="0" version="1.1" viewBox="0 0 477.871 477.871" xml:space="preserve">
  <path d="M474.609 228.901c-29.006-38.002-63.843-71.175-103.219-98.287l67.345-67.345c6.78-6.548 6.968-17.352.42-24.132-6.548-6.78-17.352-6.968-24.132-.42-.142.137-.282.277-.42.42l-73.574 73.506c-31.317-17.236-66.353-26.607-102.093-27.307C109.229 85.336 7.529 223.03 3.262 228.9c-4.349 5.983-4.349 14.087 0 20.07 29.006 38.002 63.843 71.175 103.219 98.287l-67.345 67.345c-6.78 6.548-6.968 17.352-.42 24.132 6.548 6.78 17.352 6.968 24.132.42.142-.137.282-.277.42-.42l73.574-73.506c31.317 17.236 66.353 26.607 102.093 27.307 129.707 0 231.407-137.694 235.674-143.565 4.35-5.982 4.35-14.086 0-20.069zm-343.313 93.593c-34.767-23.156-65.931-51.311-92.484-83.558 25.122-30.43 106.598-119.467 200.124-119.467 26.609.538 52.77 6.949 76.612 18.773L285.92 167.87c-39.2-26.025-92.076-15.345-118.101 23.855-18.958 28.555-18.958 65.691 0 94.246l-36.523 36.523zm153.72-105.489c3.34 6.83 5.091 14.328 5.12 21.931 0 28.277-22.923 51.2-51.2 51.2-7.603-.029-15.101-1.78-21.931-5.12l68.011-68.011zm-92.16 43.861c-3.34-6.83-5.091-14.328-5.12-21.931 0-28.277 22.923-51.2 51.2-51.2 7.603.029 15.101 1.78 21.931 5.12l-68.011 68.011zm46.08 97.536c-26.609-.538-52.769-6.949-76.612-18.773l29.628-29.628c39.2 26.025 92.076 15.345 118.101-23.855 18.958-28.555 18.958-65.691 0-94.246l36.523-36.523c34.767 23.156 65.931 51.312 92.484 83.558-25.123 30.431-106.599 119.467-200.124 119.467z"/>
</svg>
