<svg width="21" height="21" viewBox="0 0 21 21" fill="black" xmlns="http://www.w3.org/2000/svg">
<path d="M8.98018 17.9602C10.9725 17.9599 12.9076 17.2928 14.4771 16.0655L19.4117 21L20.9989 19.4129L16.0643 14.4782C17.2923 12.9086 17.9597 10.9731 17.9603 8.98016C17.9603 4.02872 13.9316 0 8.98018 0C4.02871 0 0 4.02872 0 8.98016C0 13.9316 4.02871 17.9602 8.98018 17.9602ZM8.98018 2.24504C12.6946 2.24504 15.7153 5.26573 15.7153 8.98016C15.7153 12.6946 12.6946 15.7152 8.98018 15.7152C5.26574 15.7152 2.24504 12.6946 2.24504 8.98016C2.24504 5.26573 5.26574 2.24504 8.98018 2.24504Z"/>
</svg>
