<svg width="200" height="200" viewBox="0 0 200 200" fill="none" xmlns="http://www.w3.org/2000/svg">
<g clip-path="url(#clip0)">
<path d="M97.1748 0.645996L7.6166 43.8811C6.49355 44.4233 5.78027 45.5601 5.78027 46.8069V153.193C5.78027 154.44 6.49395 155.576 7.6166 156.119L97.1748 199.354C98.9596 200.216 101.04 200.216 102.825 199.354L192.383 156.119C193.506 155.576 194.219 154.44 194.219 153.193V46.8069C194.219 45.5601 193.506 44.4233 192.383 43.8811L102.825 0.645996C101.04 -0.215332 98.9596 -0.215332 97.1748 0.645996Z" fill="#FFE17D"/>
<path d="M6.32051 45.0286C5.9791 45.5485 5.78027 46.1606 5.78027 46.8071V153.193C5.78027 154.44 6.49395 155.577 7.6166 156.119L97.1748 199.354C98.067 199.784 99.0334 200 99.9998 200V90.2532L6.32051 45.0286Z" fill="#FFBC3D"/>
<path d="M193.679 45.0286C194.021 45.5485 194.22 46.1606 194.22 46.8071V153.193C194.22 154.44 193.506 155.577 192.383 156.119L102.825 199.354C101.933 199.784 100.966 200 100 200V90.2532L193.679 45.0286Z" fill="#FFD164"/>
<path d="M32.581 147.522C32.1084 147.522 31.6259 147.418 31.1724 147.199L17.3455 140.524C15.7275 139.743 15.0517 137.801 15.8322 136.186C16.6095 134.572 18.5576 133.899 20.1693 134.673L33.9963 141.349C35.6142 142.129 36.29 144.071 35.5095 145.686C34.9513 146.847 33.79 147.522 32.581 147.522Z" fill="#DA498C"/>
<path d="M45.307 139.239C44.8343 139.239 44.3519 139.134 43.8984 138.915L17.364 126.107C15.7491 125.326 15.0702 123.384 15.8507 121.769C16.628 120.158 18.5792 119.482 20.1878 120.256L46.7218 133.065C48.3366 133.845 49.0155 135.787 48.2351 137.402C47.6773 138.562 46.5159 139.239 45.307 139.239Z" fill="#FFF6D8"/>
<path d="M161.933 60.3017L67.9246 14.8865L43.1433 26.8982L137.363 72.3837L161.933 60.3017Z" fill="#DA498C"/>
<path d="M137.363 72.3839V107.621C137.363 108.819 138.615 109.605 139.694 109.084L160.097 99.2343C161.22 98.6921 161.933 97.5554 161.933 96.3085V60.3022L137.363 72.3839Z" fill="#B8467A"/>
</g>
<defs>
<clipPath id="clip0">
<rect width="200" height="200" fill="white"/>
</clipPath>
</defs>
</svg>
