<svg width="200" height="200" viewBox="0 0 200 200" fill="none" xmlns="http://www.w3.org/2000/svg">
<g clip-path="url(#clip0)">
<path d="M162.106 87.3785C161.888 86.9303 161.508 85.8758 161.033 84.5581C159.451 80.1624 156.423 80.646 156.423 80.646C156.423 80.646 157.037 81.6752 156.012 84.344C155.703 86.1683 145.273 99.7243 143.387 96.2315C143.227 95.9361 143.185 95.5917 143.224 95.2582C143.814 90.1588 144.011 84.9391 143.823 79.6739C142.982 55.3357 134.054 29.9313 118.684 9.97072C118.64 9.91439 118.6 9.86209 118.555 9.80978C118.315 9.49836 118.073 9.18815 117.829 8.87915C117.828 8.87874 117.828 8.87834 117.828 8.87794V8.87593C117.172 8.04668 116.505 7.22629 115.826 6.41596C114.068 4.31569 113.176 6.09448 111.261 4.13221C110.637 3.49248 109.543 3.87471 109.442 4.7639C107.221 24.7487 102.545 32.4255 97.4916 38.6297C91.089 45.485 81.3593 53.5368 77.3555 64.3118C75.3788 68.7232 72.0107 72.9768 70.9823 77.3158C70.8161 78.2086 69.6228 78.2943 69.1508 77.7628C65.1997 73.827 62.2533 66.0962 61.0756 59.2261C60.6773 56.9029 59.2192 58.7215 59.255 56.7754C59.247 56.1477 58.4905 55.8379 58.0439 56.2845C37.5039 76.7038 31.0977 105.093 34.8275 134.887C35.435 139.836 35.6266 144.802 36.8819 149.473C41.0386 165.645 52.2758 178.183 65.2347 187.277C76.9134 195.472 89.7154 201.121 104.795 199.747C104.791 199.747 104.785 199.746 104.781 199.745C137.983 197.279 162.982 172.818 167.658 139.825C170.972 119.025 166.459 99.8144 162.106 87.3785Z" fill="#FFD164"/>
<path d="M103.259 199.868C72.0163 201.92 42.697 179.795 34.9236 149.546C33.6682 144.875 32.5457 139.644 31.9381 134.695C28.2083 104.901 38.766 72.6609 59.306 52.2416C59.7526 51.795 60.509 52.1048 60.5171 52.7324C60.4809 54.6798 60.678 56.9008 61.0764 59.2264C44.7047 79.5732 36.6577 108.108 39.9851 134.695C40.5927 139.644 41.7152 144.875 42.9706 149.546C50.0721 177.179 75.1586 198.037 103.259 199.868Z" fill="#FFBC3D"/>
<path d="M144.134 96.8623C144.17 96.8663 144.206 96.8704 144.242 96.8704H144.13L144.134 96.8623Z" fill="#F48931"/>
<path d="M77.3555 59.8661C76.7359 61.0651 76.1645 62.2641 75.6334 63.451L75.6294 63.443C76.1605 62.2561 76.7318 61.0611 77.3555 59.8661Z" fill="#F48931"/>
<path d="M139.164 123.552C138.277 121.299 138.034 120.631 137.487 119.511C137.292 119.113 136.703 119.19 136.616 119.624C136.322 121.089 136.253 122.105 135.501 124.066C134.322 127.208 131.845 129.982 129.444 132.253C129.125 132.561 128.667 132.475 128.429 132.187C128.321 131.994 128.259 131.808 128.276 131.66C130.539 112.815 124.539 91.5106 112.237 75.5328C112.208 75.4958 112.181 75.4636 112.153 75.4294C112.1 75.3606 112.047 75.2922 111.994 75.2238C110.357 73.1216 109.035 72.0107 107.182 70.114C106.772 69.6939 106.057 69.9434 105.992 70.5276C104.537 83.6161 102.205 90.5272 98.8952 94.5898C95.6728 98.5489 92.3655 99.6517 88.6707 105.301C85.2942 110.468 83.4808 115.098 82.4572 119.341C82.3244 119.89 80.1634 120.362 79.7944 119.933C78.7415 118.716 77.4918 116.964 76.4276 114.563C75.7174 112.961 75.2229 111.371 74.8801 109.879C74.3003 107.353 73.4743 106.914 73.459 105.349C73.4542 104.937 72.9573 104.735 72.6652 105.028C58.3403 119.268 54.1048 139.849 58.0092 160.364C63.4473 188.936 85.3091 200.042 101.155 199.794C101.848 199.783 102.731 199.923 103.657 199.851C113.44 199.093 135.045 194.081 142.97 166.771C147.506 151.139 144.105 136.089 140.836 126.679C140.419 125.473 139.164 123.552 139.164 123.552Z" fill="#DA498C"/>
<path d="M83.8534 110.981L82.4573 114.602C82.8556 113.427 83.3183 112.212 83.8534 110.981Z" fill="#DC4955"/>
<path d="M103.938 199.828C102.92 199.94 101.943 199.916 101.219 199.969C85.3702 200.134 61.4545 189.568 56.0187 160.997C52.1119 140.481 59.0243 117.459 73.348 103.219C73.6417 102.926 74.1366 103.127 74.1406 103.541C74.1567 105.106 74.3015 107.352 74.8809 109.878C64.5003 124.033 59.9175 143.434 63.261 160.997C68.1939 186.908 88.4112 198.11 103.938 199.828Z" fill="#B8467A"/>
<path d="M91.6877 179.264C91.2882 179.264 90.8818 179.184 90.4915 179.015C88.9618 178.353 88.2581 176.577 88.9195 175.048L106.09 135.34C106.752 133.81 108.528 133.107 110.057 133.768C111.587 134.429 112.291 136.206 111.629 137.735L94.4587 177.443C93.9662 178.582 92.8545 179.264 91.6877 179.264Z" fill="#F5FCFF"/>
<path d="M84.8863 154.629C84.8513 154.629 84.8163 154.629 84.7809 154.629C79.0385 154.567 74.4228 149.307 74.492 142.904C74.5608 136.539 79.2337 131.403 84.9293 131.403C84.9635 131.403 84.9973 131.403 85.0315 131.403C87.8999 131.434 90.5558 132.729 92.5104 135.051C94.3548 137.242 95.353 140.11 95.3204 143.129C95.2879 146.147 94.2285 148.993 92.3366 151.143C90.3571 153.394 87.7148 154.629 84.8863 154.629ZM84.9289 137.438C82.5313 137.438 80.5598 139.909 80.5268 142.969C80.4938 146.045 82.4312 148.568 84.8461 148.594C85.9324 148.621 86.9801 148.096 87.8049 147.158C88.7428 146.091 89.2683 144.637 89.2856 143.063C89.3025 141.489 88.808 140.024 87.8939 138.938C87.0892 137.983 86.0499 137.45 84.9668 137.438C84.9539 137.438 84.9414 137.438 84.9289 137.438Z" fill="#F5FCFF"/>
<path d="M115.069 182.231C115.034 182.231 115.001 182.231 114.966 182.23C109.224 182.168 104.609 176.908 104.678 170.505C104.747 164.14 109.419 159.004 115.115 159.004C115.149 159.004 115.183 159.004 115.217 159.004C120.959 159.066 125.575 164.326 125.506 170.729V170.73C125.437 177.095 120.764 182.231 115.069 182.231ZM115.114 165.039C112.716 165.039 110.746 167.511 110.713 170.57C110.679 173.646 112.617 176.169 115.032 176.195C117.432 176.232 119.438 173.74 119.471 170.664V170.665C119.505 167.589 117.567 165.065 115.152 165.039C115.14 165.039 115.127 165.039 115.114 165.039ZM122.489 170.697H122.493H122.489Z" fill="#F5FCFF"/>
<path d="M78.1787 17.4174C76.7918 24.7684 72.0228 28.5364 69.9442 30.2069C69.5584 30.5171 68.991 30.4073 68.7444 29.9784C67.4146 27.6649 64.2598 22.555 65.6459 15.2085C65.9597 13.5444 65.8028 11.6735 66.484 10.2367C68.8128 5.32557 72.7208 1.84967 74.329 0.556915C74.7149 0.246703 75.2822 0.356545 75.5288 0.785451C76.5762 2.60729 79.0152 7.39527 79.327 12.936C79.4111 14.4304 78.4728 15.8567 78.1787 17.4174Z" fill="#DA498C"/>
<path d="M79.0454 17.5389C77.6613 24.8898 71.7387 30.2089 69.6585 31.8787C69.2723 32.1885 68.705 32.0798 68.4595 31.6533C67.1318 29.3398 63.5549 22.2424 64.943 14.8955C65.285 13.0808 65.9046 11.391 66.6771 9.84998C66.9869 15.3863 69.4252 20.1743 70.4713 21.9969C70.7167 22.4234 71.284 22.5321 71.6703 22.2223C73.2354 20.9669 76.9813 17.6395 79.323 12.936C79.4115 14.4327 79.3391 15.9818 79.0454 17.5389Z" fill="#B8467A"/>
<path d="M167.381 40.719C168.827 47.3771 165.455 52.5747 164.162 54.6898C163.924 55.0793 163.407 55.1912 163.03 54.9353C160.975 53.5435 156.021 50.3915 154.574 43.7322C154.333 42.6233 153.585 41.4384 153.59 40.3505C153.612 34.9071 156.285 29.9907 157.362 28.2276C157.601 27.8382 158.117 27.7263 158.495 27.9822C160.061 29.0432 163.938 31.9558 166.333 36.2304C167.081 37.5642 167.037 39.1358 167.381 40.719Z" fill="#DA498C"/>
<path d="M164.593 56.0438C164.356 56.43 163.837 56.5427 163.462 56.2892C161.406 54.8971 155.375 50.3143 153.927 43.6554C153.629 42.2874 153.544 40.9154 153.613 39.5877C156.007 43.8646 159.882 46.7777 161.451 47.8399C161.825 48.0933 162.344 47.9807 162.581 47.5944C163.607 45.9166 166.086 41.3701 166.331 36.2321C167.08 37.5638 167.683 39.0284 168.029 40.6137C169.474 47.2726 165.885 53.9274 164.593 56.0438Z" fill="#B8467A"/>
<path d="M111.994 75.2238C110.231 84.8038 107.145 90.3884 104.345 93.8285C101.122 97.7877 98.1408 99.0711 94.4432 104.72C92.6728 107.428 91.0675 111.52 89.9087 114.811C88.7781 118.014 85.7484 120.154 82.3485 120.166L80.3167 120.174C81.6927 119.553 81.5406 116.264 82.4576 114.602C83.6562 111.281 85.2185 107.654 87.2009 104.72C90.8985 99.0711 93.8799 97.7877 97.1027 93.8285C100.41 89.7648 104.112 82.7156 105.568 69.6271C105.633 69.0437 106.349 68.7943 106.759 69.2127C108.377 70.8744 109.922 72.6206 111.374 74.4393C111.583 74.7008 111.788 74.9623 111.994 75.2238Z" fill="#B8467A"/>
<path d="M140.83 126.681C140.784 126.767 140.733 126.857 140.679 126.949C138.655 130.396 134.891 132.446 130.893 132.446H129.029L129.033 132.442C129.178 132.43 129.323 132.374 129.444 132.253C131.846 129.984 133.801 126.753 134.98 123.611C135.6 121.993 136.026 120.46 136.324 119.149C136.324 119.145 136.324 119.145 136.324 119.141C136.384 118.867 136.441 118.597 136.493 118.348C136.581 117.913 137.169 117.833 137.362 118.231C137.913 119.354 138.718 121.1 139.607 123.349V123.353C140.005 124.363 140.42 125.478 140.83 126.681Z" fill="#B8467A"/>
<path d="M144.242 96.8702H144.13L144.134 96.8622C144.17 96.8662 144.206 96.8702 144.242 96.8702Z" fill="#F48931"/>
<path d="M108.501 0.94994C106.281 20.9347 100.627 31.6976 95.574 37.9018C89.1726 44.7579 79.6369 52.6761 75.6335 63.4511L75.6294 63.443C74.702 65.5171 73.8539 67.7486 73.1003 69.9824L73.0946 69.9732C72.9792 70.3212 72.8717 70.6693 72.7526 71.0153C72.7534 71.0169 72.7542 71.0189 72.7551 71.0205C72.0562 73.1868 71.4535 75.3341 70.9823 77.3161C70.8938 77.8069 70.4874 78.0564 70.0649 78.0886V78.0926H72.8923C76.4422 78.0926 79.5785 75.769 80.5965 72.3684C81.5247 69.2687 82.6943 65.6354 83.6765 63.443L83.6805 63.4511C87.6839 52.6761 97.2196 44.7579 103.621 37.9018C108.192 32.289 113.257 22.9464 115.824 6.41788C114.07 4.31761 112.235 2.28172 110.32 0.318249C109.696 -0.321488 108.602 0.0607449 108.501 0.94994Z" fill="#FFBC3D"/>
<path d="M155.721 75.3445C155.206 77.9317 154.438 80.7119 153.412 83.3795C153.364 83.6623 153.135 84.2522 152.777 85.0271C152.738 85.1112 152.699 85.1965 152.657 85.2846C152.642 85.3168 152.626 85.3498 152.61 85.3824C152.454 85.7103 152.278 86.0656 152.086 86.4406C152.051 86.509 152.016 86.5774 151.98 86.647C149.905 90.6608 146.123 96.7452 144.186 96.7697L144.13 96.8703L144.532 96.8651C149.513 96.8011 154.187 94.4369 157.181 90.4552C158.84 88.2479 160.419 85.9706 161.032 84.5584C159.451 80.1647 156.828 72.8419 155.721 75.3445Z" fill="#FFBC3D"/>
</g>
<defs>
<clipPath id="clip0">
<rect width="200" height="200" fill="white"/>
</clipPath>
</defs>
</svg>
