<svg width="200" height="200" viewBox="0 0 200 200" fill="none" xmlns="http://www.w3.org/2000/svg">
<path d="M190.281 117.965L192.41 138.277L176.531 151.133L170.711 170.711L151.133 176.535L138.277 192.41L117.965 190.281L100 200L82.0352 190.281L61.7227 192.41L48.8672 176.531L29.2891 170.711L23.4648 151.133L7.58984 138.277L9.71875 117.965L0 100L9.71875 82.0352L7.58984 61.7227L23.4688 48.8672L29.2891 29.2891L48.8672 23.4648L61.7227 7.58984L82.0352 9.71875L100 0L117.965 9.71875L138.277 7.58984L151.133 23.4688L170.711 29.2891L176.535 48.8672L192.41 61.7227L190.281 82.0352L200 100L190.281 117.965Z" fill="#FFD164"/>
<path d="M190.281 117.965L192.41 138.277L176.531 151.133L170.711 170.711L151.133 176.535L138.277 192.41L117.965 190.281L100 200V0L117.965 9.71875L138.277 7.58984L151.133 23.4688L170.711 29.2891L176.535 48.8672L192.41 61.7227L190.281 82.0352L200 100L190.281 117.965Z" fill="#FFBC3D"/>
<path d="M129.394 157.921H117.675V103.038H135.303C145.022 103.038 152.929 110.946 152.929 120.665C152.929 130.385 145.022 138.292 135.303 138.292H129.394V157.921ZM129.394 126.573H135.303C138.561 126.573 141.211 123.923 141.211 120.665C141.211 117.407 138.561 114.757 135.303 114.757H129.394V126.573Z" fill="#2B4D66"/>
<path d="M94.1406 103.035H105.859V157.922H94.1406V103.035Z" fill="#407093"/>
<path d="M100 103.035H105.859V157.922H100V103.035Z" fill="#2B4D66"/>
<path d="M69.8871 157.921H60.2882L45.6765 107.232L56.9367 103.986L65.0878 132.263L73.2386 103.986L84.4988 107.232L69.8871 157.921Z" fill="#407093"/>
<path d="M127.105 48.3789L122.605 88.1328H77.3945L72.8945 48.3789L89.1484 58.5977L100 42.0781L110.852 58.5977L127.105 48.3789Z" fill="#DA498C"/>
<path d="M127.105 48.3789L122.605 88.1328H100V42.0781L110.852 58.5977L127.105 48.3789Z" fill="#B8467A"/>
</svg>
