<svg width="200" height="200" viewBox="0 0 200 200" fill="none" xmlns="http://www.w3.org/2000/svg">
<path d="M193.104 193.104H6.89648V22.4137C6.89648 21.4613 7.66836 20.6895 8.6207 20.6895H191.379C192.332 20.6895 193.104 21.4613 193.104 22.4137V193.104Z" fill="#FFD164"/>
<path d="M193.104 162.07H6.89648V189.656H193.104V162.07Z" fill="#FFBC3D"/>
<path d="M193.104 82.4616C192.397 82.6374 191.67 82.7585 190.909 82.7585C185.888 82.7585 181.818 78.6882 181.818 73.6675C181.818 78.6878 177.748 82.7585 172.727 82.7585C167.706 82.7585 163.636 78.6882 163.636 73.6675C163.636 78.6878 159.566 82.7585 154.545 82.7585C149.524 82.7585 145.454 78.6882 145.454 73.6675C145.454 78.6878 141.384 82.7585 136.363 82.7585C131.342 82.7585 127.272 78.6882 127.272 73.6675C127.272 78.6878 123.202 82.7585 118.181 82.7585C113.16 82.7585 109.09 78.6882 109.09 73.6675C109.09 78.6878 105.02 82.7585 99.9989 82.7585C94.9778 82.7585 90.9078 78.6882 90.9078 73.6675C90.9078 78.6878 86.8375 82.7585 81.8168 82.7585C76.7961 82.7585 72.7258 78.6882 72.7258 73.6675C72.7258 78.6878 68.6559 82.7585 63.6348 82.7585C58.6141 82.7585 54.5438 78.6882 54.5438 73.6675C54.5438 78.6878 50.4735 82.7585 45.4528 82.7585C40.4321 82.7585 36.3617 78.6882 36.3617 73.6675C36.3617 78.6878 32.2914 82.7585 27.2707 82.7585C22.25 82.7585 18.1797 78.6882 18.1797 73.6675C18.1797 78.6878 14.1098 82.7585 9.0887 82.7585C8.32776 82.7585 7.60081 82.6374 6.89417 82.4616V89.4335C7.61838 89.5339 8.33713 89.6554 9.0887 89.6554C12.4633 89.6554 15.5969 88.6046 18.1797 86.8128C20.7633 88.6046 23.8965 89.655 27.2715 89.655C30.6461 89.655 33.7797 88.6042 36.3625 86.8124C38.9453 88.6042 42.0789 89.655 45.4535 89.655C48.8282 89.655 51.9617 88.6042 54.5446 86.8124C57.1274 88.6042 60.261 89.655 63.6356 89.655C67.0102 89.655 70.1438 88.6042 72.7266 86.8124C75.3094 88.6042 78.443 89.655 81.8176 89.655C85.1922 89.655 88.3258 88.6042 90.9086 86.8124C93.491 88.6046 96.6246 89.655 99.9993 89.655C103.374 89.655 106.507 88.6042 109.09 86.8124C111.673 88.6042 114.807 89.655 118.181 89.655C121.556 89.655 124.689 88.6042 127.272 86.8124C129.855 88.6042 132.989 89.655 136.363 89.655C139.738 89.655 142.872 88.6042 145.454 86.8124C148.037 88.6042 151.171 89.655 154.545 89.655C157.92 89.655 161.054 88.6042 163.636 86.8124C166.219 88.6042 169.353 89.655 172.727 89.655C176.102 89.655 179.236 88.6042 181.818 86.8124C184.401 88.6042 187.535 89.655 190.909 89.655C191.661 89.655 192.38 89.5339 193.104 89.4331V82.4616H193.104Z" fill="#FFBC3D"/>
<path d="M120.689 103.449H24.1379V172.414H120.689V103.449Z" fill="#B4E1FA"/>
<path d="M175.863 103.449H134.484V172.414H175.863V103.449Z" fill="#B4E1FA"/>
<path d="M175.863 103.449H134.484V113.794H175.863V103.449Z" fill="#A0D2F0"/>
<path d="M175.862 135.632L151.724 103.448H144.828L175.862 144.828V135.632Z" fill="#DAF0FD"/>
<path d="M137.931 103.448H134.483V117.241L175.862 172.414V154.023L137.931 103.448Z" fill="#A0D2F0"/>
<path d="M159.483 113.793L151.724 103.448H144.828L152.586 113.793H159.483Z" fill="#B4E1FA"/>
<path d="M110.345 172.414H103.448L51.7242 103.448H58.6207L110.345 172.414Z" fill="#DAF0FD"/>
<path d="M96.5516 172.414H82.7586L31.0344 103.448H44.8278L96.5516 172.414Z" fill="#A0D2F0"/>
<path d="M120.689 103.449H24.1379V113.794H120.689V103.449Z" fill="#A0D2F0"/>
<path d="M66.3793 113.793L58.6207 103.448H51.7242L59.4828 113.793H66.3793Z" fill="#B4E1FA"/>
<path d="M81.8179 82.7585C76.7972 82.7585 72.7269 78.6882 72.7269 73.6675V65.5171H90.909V73.6675C90.909 78.6882 86.8386 82.7585 81.8179 82.7585Z" fill="#B8467A"/>
<path d="M118.182 82.7585C113.161 82.7585 109.091 78.6882 109.091 73.6675V65.5171H127.273V73.6675C127.273 78.6882 123.203 82.7585 118.182 82.7585Z" fill="#B8467A"/>
<path d="M45.4547 82.7585C40.434 82.7585 36.3636 78.6882 36.3636 73.6675V65.5171H54.5457V73.6675C54.5453 78.6882 50.4754 82.7585 45.4547 82.7585Z" fill="#B8467A"/>
<path d="M9.09102 82.7585C4.07031 82.7585 0 78.6882 0 73.6675V65.5171H18.182V73.6675C18.182 78.6882 14.1117 82.7585 9.09102 82.7585Z" fill="#B8467A"/>
<path d="M154.545 82.7585C149.525 82.7585 145.454 78.6882 145.454 73.6675V65.5171H163.636V73.6675C163.636 78.6882 159.566 82.7585 154.545 82.7585Z" fill="#B8467A"/>
<path d="M63.6363 82.7585C58.6156 82.7585 54.5453 78.6882 54.5453 73.6675V65.5171H72.7273V73.6675C72.7273 78.6882 68.6574 82.7585 63.6363 82.7585Z" fill="#C7CFE2"/>
<path d="M136.364 82.7585C131.343 82.7585 127.273 78.6882 127.273 73.6675V65.5171H145.455V73.6675C145.455 78.6882 141.384 82.7585 136.364 82.7585Z" fill="#C7CFE2"/>
<path d="M190.909 82.7585C185.888 82.7585 181.818 78.6882 181.818 73.6675V65.5171H200V73.6675C200 78.6882 195.93 82.7585 190.909 82.7585Z" fill="#B8467A"/>
<path d="M172.727 82.7585C167.707 82.7585 163.636 78.6882 163.636 73.6675V65.5171H181.818V73.6675C181.818 78.6882 177.748 82.7585 172.727 82.7585Z" fill="#C7CFE2"/>
<path d="M27.2727 82.7585C22.252 82.7585 18.1816 78.6882 18.1816 73.6675V65.5171H36.3637V73.6675C36.3637 78.6882 32.2934 82.7585 27.2727 82.7585Z" fill="#C7CFE2"/>
<path d="M99.9999 82.7585C94.9792 82.7585 90.9089 78.6882 90.9089 73.6675V65.5171H109.091V73.6675C109.091 78.6882 105.021 82.7585 99.9999 82.7585Z" fill="#C7CFE2"/>
<path d="M90.9089 65.5171H72.7273L74.6081 37.9308H91.5363L90.9089 65.5171Z" fill="#DA498C"/>
<path d="M127.273 65.5171H109.091L108.464 37.9308H125.392L127.273 65.5171Z" fill="#DA498C"/>
<path d="M54.5453 65.5171H36.3636L40.7523 37.9308H57.68L54.5453 65.5171Z" fill="#DA498C"/>
<path d="M18.182 65.5171H0L6.89648 37.9308H23.8246L18.182 65.5171Z" fill="#DA498C"/>
<path d="M163.636 65.5171H145.455L142.32 37.9308H159.248L163.636 65.5171Z" fill="#DA498C"/>
<path d="M72.7273 65.5171H54.5453L57.6801 37.9308H74.6082L72.7273 65.5171Z" fill="#EFF2FA"/>
<path d="M145.455 65.5171H127.273L125.392 37.9308H142.32L145.455 65.5171Z" fill="#EFF2FA"/>
<path d="M200 65.5171H181.818L176.175 37.9308H193.104L200 65.5171Z" fill="#DA498C"/>
<path d="M181.818 65.5171H163.636L159.248 37.9308H176.175L181.818 65.5171Z" fill="#EFF2FA"/>
<path d="M36.3636 65.5171H18.182L23.8246 37.9308H40.7523L36.3636 65.5171Z" fill="#EFF2FA"/>
<path d="M109.091 65.5171H90.9089L91.5363 37.9308H108.464L109.091 65.5171Z" fill="#EFF2FA"/>
<path d="M117.241 106.896V168.966H27.5863V106.896H117.241ZM120.69 100H24.1379C22.2336 100 20.6895 101.544 20.6895 103.448V172.414C20.6895 174.318 22.2336 175.863 24.1379 175.863H120.689C122.594 175.863 124.138 174.318 124.138 172.414V103.448C124.138 101.544 122.594 100 120.69 100Z" fill="#8F96AC"/>
<path d="M175.862 100H134.483C132.579 100 131.034 101.544 131.034 103.448V189.655H179.31V103.448C179.31 101.544 177.766 100 175.862 100ZM172.414 168.966H137.931V106.896H172.414V168.966Z" fill="#8F96AC"/>
<path d="M155.172 37.9309H44.8278C41.0188 37.9309 37.9313 34.8434 37.9313 31.0344V10.345C37.9313 6.53599 41.0188 3.44849 44.8278 3.44849H155.173C158.982 3.44849 162.069 6.53599 162.069 10.345V31.0348C162.069 34.8434 158.982 37.9309 155.172 37.9309Z" fill="#8F96AC"/>
<path d="M153.448 31.0344H46.5516C45.5993 31.0344 44.8274 30.2625 44.8274 29.3102V12.0692C44.8274 11.1168 45.5993 10.345 46.5516 10.345H153.448C154.4 10.345 155.172 11.1168 155.172 12.0692V29.3106C155.172 30.2626 154.4 31.0344 153.448 31.0344Z" fill="#FFD164"/>
<path d="M46.5516 31.0344H153.448C154.4 31.0344 155.172 30.2625 155.172 29.3102V22.4137C155.172 23.366 154.4 24.1379 153.448 24.1379H46.5516C45.5993 24.1379 44.8274 23.366 44.8274 22.4137V29.3102C44.8278 30.2625 45.5997 31.0344 46.5516 31.0344Z" fill="#FFBC3D"/>
<path d="M198.276 196.551H1.72422C0.771875 196.551 0 195.78 0 194.827V191.379C0 190.426 0.771875 189.655 1.72422 189.655H198.276C199.228 189.655 200 190.426 200 191.379V194.827C200 195.78 199.228 196.551 198.276 196.551Z" fill="#8F96AC"/>
</svg>
