<svg width="200" height="200" viewBox="0 0 200 200" fill="none" xmlns="http://www.w3.org/2000/svg">
<path d="M1.48682 31.5054C1.48682 13.9511 15.8438 -0.250051 33.4563 0.00346434C50.5169 0.248777 64.3892 14.2402 64.497 31.3019C64.5575 40.857 60.363 49.4324 53.6981 55.2492C52.9946 55.8628 53.0962 56.9832 53.8997 57.4585L59.836 60.971C60.7958 61.539 60.3931 63.0101 59.2778 63.0101L32.3958 63.0035C15.2712 62.6851 1.48682 48.7058 1.48682 31.5054Z" fill="#DA498C"/>
<path d="M59.836 60.9711L53.8993 57.4586C53.1 56.9859 52.9891 55.8672 53.6887 55.257C60.4297 49.3785 64.6461 40.6781 64.4934 30.9961C64.229 14.2488 50.6743 0.501573 33.9317 0.0136822C31.5575 -0.0554584 29.2403 0.138682 27.0071 0.567979C41.4786 3.3422 52.5075 16.0981 52.6036 31.3016C52.65 38.6645 50.17 45.4457 45.9801 50.8313C43.45 54.0832 44.2723 58.7988 47.8184 60.8973L47.9426 60.9707C48.8918 61.5324 48.5067 62.9754 47.4196 63.0067L59.2774 63.0094C60.3926 63.0102 60.7957 61.5387 59.836 60.9711Z" fill="#B8467A"/>
<path d="M154.997 114.357H83.5258C65.675 114.357 55.9062 93.5543 67.3074 79.8184L67.9414 79.0543C72.964 73.0031 75.7133 65.3863 75.7133 57.5223V43.7398C75.7137 19.5828 95.2965 0 119.453 0C143.611 0 163.193 19.5828 163.193 43.7398V57.9875C163.193 65.934 166 73.625 171.119 79.7035C182.662 93.4113 172.918 114.357 154.997 114.357Z" fill="#C59191"/>
<path d="M192.566 149.777V197.027H45.957V150.133C45.957 139.516 52.3203 129.934 62.1016 125.816L85.7695 115.527L93.7383 112.063C99.7852 109.434 103.695 103.469 103.695 96.875V93.8164H134.824V96.7188C134.824 103.34 138.773 109.328 144.863 111.938L176.875 125.66C186.414 129.887 192.566 139.34 192.566 149.777Z" fill="white"/>
<path d="M85.7676 126.793C93.8454 129.207 105.735 131.781 120.227 131.527C133.825 131.29 144.988 128.646 152.755 126.165L156.615 116.975L144.862 111.938C138.774 109.328 134.826 103.341 134.826 96.7173V93.8173H103.697V96.8751C103.697 103.468 99.7864 109.433 93.7407 112.061L84.2219 116.2L85.7676 126.793Z" fill="#FFCEBF"/>
<path d="M176.873 125.658L152.759 115.323L152.755 115.323V197.027H192.567V149.778C192.567 139.341 186.415 129.886 176.873 125.658Z" fill="#407093"/>
<path d="M85.7695 115.527V197.027H45.957V150.133C45.957 139.516 52.3203 129.934 62.1016 125.816L85.7695 115.527Z" fill="#407093"/>
<path d="M130.052 110.903C133.633 110.903 137.046 110.184 140.156 108.886C136.82 105.806 134.826 101.423 134.826 96.7175V93.8175H103.697V96.8749C103.697 99.2566 103.184 101.555 102.247 103.645C106.961 108.139 113.338 110.903 120.364 110.903H130.052V110.903Z" fill="#FFB09E"/>
<path d="M150.374 46.9895V72.7414C150.374 87.2492 138.613 99.0098 124.105 99.0098H114.418C99.9097 99.0098 88.1492 87.2488 88.1492 72.7414V46.9895C88.1492 37.5516 95.8 29.9004 105.238 29.9004H133.285C142.723 29.9008 150.374 37.5516 150.374 46.9895Z" fill="#FFCEBF"/>
<path d="M150.374 60.3879C150.362 60.4235 150.348 60.4579 150.337 60.4942C149.388 63.7735 146.895 69.968 140.873 74.6122C138.069 76.775 134.87 78.3375 131.366 79.2571C129.778 79.6739 128.828 81.2993 129.244 82.8875C129.595 84.2231 130.799 85.1071 132.119 85.1071C132.368 85.1071 132.622 85.0754 132.875 85.009C137.153 83.8864 141.066 81.9727 144.504 79.3215C146.879 77.4903 148.801 75.4676 150.357 73.434C150.363 73.2036 150.374 72.9743 150.374 72.7422V60.3879H150.374Z" fill="#7A6D79"/>
<path d="M128.105 87.4761H121.138C117.966 87.4761 115.395 84.905 115.395 81.7335C115.395 78.5621 117.966 75.991 121.138 75.991H128.105C131.277 75.991 133.848 78.5621 133.848 81.7335C133.847 84.9054 131.277 87.4761 128.105 87.4761Z" fill="#685E68"/>
<path d="M125.469 23.0848C126.136 14.6708 134.192 9.08677 141.902 6.19458C154.655 13.8364 163.193 27.7899 163.193 43.7395V46.7465C162.488 46.8946 161.787 47.0243 161.093 47.1278C156.846 47.7622 153.229 47.4875 150.758 47.1278C134.835 45.0067 124.663 33.2469 125.469 23.0848Z" fill="#B98080"/>
<path d="M119.454 0C129.332 0 138.444 3.27578 145.766 8.79883C142.114 15.1547 133.726 27.7211 117.998 37.0242C106.323 43.9309 95.3133 46.2516 88.5336 47.1277H75.7141V43.7395C75.7137 19.5828 95.2965 0 119.454 0V0Z" fill="#C59191"/>
<path d="M168.348 197.027H73.1708L67.9212 147.505C67.5489 143.993 70.3025 140.932 73.8345 140.932H167.685C171.217 140.932 173.97 143.993 173.598 147.505L168.348 197.027Z" fill="#EFEDEF"/>
<path d="M167.684 140.932H155.792C159.324 140.932 162.077 143.993 161.705 147.505L156.455 197.027H168.348L173.598 147.505C173.97 143.993 171.217 140.932 167.684 140.932Z" fill="#E5E1E5"/>
<path d="M197.07 200H2.92969C1.31133 200 0 198.688 0 197.07C0 195.452 1.31133 194.141 2.92969 194.141H197.07C198.689 194.141 200 195.452 200 197.07C200 198.688 198.689 200 197.07 200Z" fill="#8F96AC"/>
<path d="M120.759 177.304C125.357 177.304 129.084 173.577 129.084 168.979C129.084 164.382 125.357 160.654 120.759 160.654C116.162 160.654 112.434 164.382 112.434 168.979C112.434 173.577 116.162 177.304 120.759 177.304Z" fill="#DA498C"/>
<path d="M21.0993 34.4781C22.7412 34.4781 24.0723 33.147 24.0723 31.505C24.0723 29.8631 22.7412 28.532 21.0993 28.532C19.4573 28.532 18.1262 29.8631 18.1262 31.505C18.1262 33.147 19.4573 34.4781 21.0993 34.4781Z" fill="white"/>
<path d="M32.9921 34.4781C34.6341 34.4781 35.9651 33.147 35.9651 31.505C35.9651 29.8631 34.6341 28.532 32.9921 28.532C31.3501 28.532 30.019 29.8631 30.019 31.505C30.019 33.147 31.3501 34.4781 32.9921 34.4781Z" fill="white"/>
<path d="M44.8852 34.4781C46.5271 34.4781 47.8582 33.147 47.8582 31.505C47.8582 29.8631 46.5271 28.532 44.8852 28.532C43.2432 28.532 41.9121 29.8631 41.9121 31.505C41.9121 33.147 43.2432 34.4781 44.8852 34.4781Z" fill="white"/>
</svg>
