<svg width="200" height="200" viewBox="0 0 200 200" fill="none" xmlns="http://www.w3.org/2000/svg">
<g clip-path="url(#clip0)">
<path d="M150.133 156.776L152.186 150.145V8.22573C152.186 6.19019 150.536 4.53979 148.501 4.53979H51.5076C49.472 4.53979 47.822 6.1898 47.822 8.22573V150.145L49.8755 156.776H150.133Z" fill="#407093"/>
<path d="M47.822 150.145V175.69C47.822 177.725 49.472 179.376 51.5076 179.376H148.5C150.536 179.376 152.186 177.726 152.186 175.69V150.145H47.822Z" fill="#DAE7EF"/>
<path d="M148.5 4.54016H138.593V156.776H150.133L152.186 150.145V8.22571C152.186 6.19016 150.536 4.54016 148.5 4.54016Z" fill="#2B4D66"/>
<path d="M138.593 150.145V162.096C138.593 164.132 136.943 165.782 134.907 165.782H47.822V175.69C47.822 177.726 49.472 179.376 51.5076 179.376H148.5C150.536 179.376 152.186 177.726 152.186 175.69V150.145H138.593V150.145Z" fill="#C1D5E4"/>
<path d="M148.5 182.456H51.5075C47.7766 182.456 44.7415 179.421 44.7415 175.69V8.22573C44.7415 4.49487 47.7766 1.45972 51.5075 1.45972H148.5C152.231 1.45972 155.266 4.49487 155.266 8.22573V175.69C155.266 179.421 152.231 182.456 148.5 182.456ZM51.5075 7.62026C51.1735 7.62026 50.902 7.89175 50.902 8.22573V175.69C50.902 176.024 51.1735 176.295 51.5075 176.295H148.5C148.834 176.295 149.105 176.024 149.105 175.69V8.22573C149.105 7.89175 148.834 7.62026 148.5 7.62026H51.5075Z" fill="#98B9D3"/>
<path d="M198.923 158.268C198.792 157.446 198.611 156.632 198.398 155.826L186.231 109.747C185.317 106.285 183.633 103.075 181.303 100.355C179.817 98.6214 178.59 96.6827 177.658 94.5984L158.221 51.1417C157.572 49.6894 156.522 48.5476 155.266 47.7687V89.9984L157.451 96.9812C157.826 98.1784 158.016 99.4261 158.013 100.681L157.981 121.148C157.972 126.132 153.93 130.169 148.945 130.169H148.9C146.034 130.143 143.336 128.814 141.568 126.558C138.421 122.543 133.755 116.577 133.755 116.577C131.123 113.187 126.907 111.076 122.611 111.067C119.459 111.028 116.274 112.019 113.597 114.112C111.688 115.604 111.351 118.361 112.844 120.269L132.361 145.226C133.459 146.63 134.008 148.369 134.013 150.152C134.033 157.758 139.324 164.335 146.754 165.981L155.235 167.86C156.079 168.046 156.679 168.795 156.679 169.659V194.889C156.679 196.905 158.314 198.54 160.331 198.54L196.348 198.467C198.365 198.467 199.999 196.833 199.999 194.816V171.889C200 167.327 199.64 162.773 198.923 158.268Z" fill="#FFCEBF"/>
<path d="M69.9957 44.1601C74.4461 44.1601 78.0539 40.5523 78.0539 36.1019C78.0539 31.6515 74.4461 28.0437 69.9957 28.0437C65.5453 28.0437 61.9375 31.6515 61.9375 36.1019C61.9375 40.5523 65.5453 44.1601 69.9957 44.1601Z" fill="#DA498C"/>
<path d="M129.692 44.1601C134.143 44.1601 137.751 40.5523 137.751 36.1019C137.751 31.6515 134.143 28.0437 129.692 28.0437C125.242 28.0437 121.634 31.6515 121.634 36.1019C121.634 40.5523 125.242 44.1601 129.692 44.1601Z" fill="#B8467A"/>
<path d="M69.9957 71.541C74.4461 71.541 78.0539 67.9332 78.0539 63.4828C78.0539 59.0323 74.4461 55.4246 69.9957 55.4246C65.5453 55.4246 61.9375 59.0323 61.9375 63.4828C61.9375 67.9332 65.5453 71.541 69.9957 71.541Z" fill="#DA498C"/>
<path d="M99.5934 98.5108C104.044 98.5108 107.652 94.903 107.652 90.4526C107.652 86.0022 104.044 82.3944 99.5934 82.3944C95.1429 82.3944 91.5352 86.0022 91.5352 90.4526C91.5352 94.903 95.1429 98.5108 99.5934 98.5108Z" fill="#DA498C"/>
<path d="M96.7906 29.8562L91.5429 38.9457C90.2972 41.1031 91.8543 43.7996 94.3453 43.7996H104.841C107.332 43.7996 108.889 41.1031 107.643 38.9457L102.396 29.8562C101.15 27.6988 98.0363 27.6988 96.7906 29.8562Z" fill="#FFD164"/>
<path d="M126.89 57.2371L121.643 66.3265C120.397 68.484 121.954 71.1805 124.445 71.1805H134.941C137.432 71.1805 138.989 68.484 137.743 66.3265L132.495 57.2371C131.25 55.0797 128.136 55.0797 126.89 57.2371Z" fill="#FFD164"/>
<path d="M67.1934 84.6175L61.9458 93.707C60.7001 95.8644 62.2571 98.5609 64.7481 98.5609H75.2438C77.7348 98.5609 79.2919 95.8644 78.0462 93.707L72.7985 84.6175C71.5528 82.4605 68.4387 82.4605 67.1934 84.6175Z" fill="#FFD164"/>
<path d="M109.938 169.126H90.0698C88.3687 169.126 86.9897 167.748 86.9897 166.046C86.9897 164.345 88.3687 162.966 90.0698 162.966H109.938C111.639 162.966 113.018 164.345 113.018 166.046C113.018 167.748 111.639 169.126 109.938 169.126Z" fill="#DA498C"/>
<path d="M137.511 98.5612H121.874C120.795 98.5612 119.921 97.6866 119.921 96.6081V87.205C119.921 86.1264 120.795 85.2518 121.874 85.2518H137.511C138.59 85.2518 139.464 86.1264 139.464 87.205V96.6081C139.464 97.6866 138.59 98.5612 137.511 98.5612Z" fill="#61A2F9"/>
<path d="M107.416 70.1375H91.7786C90.7 70.1375 89.8254 69.2629 89.8254 68.1844V58.7813C89.8254 57.7027 90.7 56.8281 91.7786 56.8281H107.416C108.495 56.8281 109.369 57.7027 109.369 58.7813V68.1844C109.369 69.2633 108.495 70.1375 107.416 70.1375Z" fill="#61A2F9"/>
<path d="M198.923 158.268C198.792 157.446 198.611 156.632 198.398 155.826L186.231 109.747C185.317 106.285 183.633 103.075 181.303 100.355C179.817 98.6214 178.59 96.6827 177.658 94.5984L158.221 51.1417C157.572 49.6894 156.522 48.5476 155.266 47.7687V64.2366L168.846 94.598C169.778 96.682 171.006 98.621 172.491 100.355C174.821 103.074 176.506 106.285 177.42 109.747L189.586 155.826C189.799 156.632 189.98 157.445 190.111 158.268C190.828 162.772 191.188 167.326 191.188 171.889V194.816C191.188 196.832 189.554 198.467 187.537 198.467L159.993 198.523C160.104 198.533 160.217 198.54 160.331 198.54L196.349 198.467C198.365 198.467 200 196.832 200 194.816V171.889C200 167.327 199.64 162.773 198.923 158.268Z" fill="#FFB09E"/>
<path d="M86.4023 114.111C83.7262 112.018 80.5402 111.028 77.3883 111.067C73.0934 111.076 68.8766 113.187 66.2449 116.577C66.2449 116.577 61.5789 122.543 58.432 126.558C56.6637 128.814 53.966 130.142 51.0996 130.168H51.0543C46.0699 130.168 42.027 126.132 42.0191 121.148L41.9863 100.68C41.9844 99.4257 42.1738 98.1781 42.5488 96.9808L44.7418 89.9738V47.7644C43.4828 48.5437 42.4301 49.6867 41.7793 51.1421L22.3426 94.5984C21.4105 96.6824 20.1828 98.6214 18.6973 100.355C16.3676 103.075 14.6828 106.285 13.7688 109.747L1.60195 155.827C1.38945 156.632 1.2082 157.446 1.07734 158.268C0.360547 162.773 0 167.327 0 171.889V194.816C0 196.833 1.63477 198.468 3.65156 198.468L39.6688 198.54C41.6855 198.54 43.3203 196.905 43.3203 194.889V169.659C43.3203 168.795 43.9207 168.046 44.7645 167.86L53.2457 165.981C60.6746 164.335 65.9664 157.757 65.9867 150.152C65.9914 148.369 66.5402 146.63 67.6387 145.226L87.1555 120.269C88.648 118.361 88.3109 115.604 86.4023 114.111Z" fill="#FFCEBF"/>
<path d="M86.4023 114.111C85.0425 113.048 83.5511 112.271 81.9996 111.767C81.8453 112.198 81.6238 112.612 81.3269 112.992L61.8101 137.948C60.7117 139.353 60.1628 141.092 60.1582 142.875C60.1378 150.481 54.846 157.058 47.4171 158.704L36.4273 161.548C35.5835 161.734 34.9832 162.483 34.9832 163.347V198.531L39.6687 198.54C41.6855 198.54 43.3203 196.905 43.3203 194.889V169.659C43.3203 168.795 43.9207 168.046 44.7644 167.86L53.2457 165.981C60.6746 164.335 65.9667 157.757 65.9867 150.152C65.9914 148.369 66.5402 146.63 67.6386 145.225L87.1554 120.269C88.648 118.36 88.3109 115.604 86.4023 114.111Z" fill="#FFB09E"/>
</g>
<defs>
<clipPath id="clip0">
<rect width="200" height="200" fill="white"/>
</clipPath>
</defs>
</svg>
