<svg width="200" height="200" viewBox="0 0 200 200" fill="none" xmlns="http://www.w3.org/2000/svg">
<g clip-path="url(#clip0)">
<path fill-rule="evenodd" clip-rule="evenodd" d="M134.483 0H148.276C153.989 0 158.621 4.63154 158.621 10.3448V179.31C158.621 185.024 153.989 189.655 148.276 189.655H51.7241C46.0108 189.655 41.3793 185.024 41.3793 179.31V10.3448C41.3793 4.63154 46.0108 0 51.7241 0H134.483Z" fill="#A0D2F0"/>
<path fill-rule="evenodd" clip-rule="evenodd" d="M158.621 172.414V189.655C158.621 195.368 153.989 200 148.276 200H51.7241C46.0108 200 41.3793 195.368 41.3793 189.655V172.414C41.3793 178.127 46.0108 182.759 51.7241 182.759H148.276C153.989 182.759 158.621 178.127 158.621 172.414Z" fill="#407093"/>
<path fill-rule="evenodd" clip-rule="evenodd" d="M158.621 10.3448V13.7931C158.621 13.7931 44.3448 20.5172 41.4482 173.31C41.391 173.015 41.3679 172.714 41.3793 172.414V10.3448C41.3793 4.63154 46.0108 0 51.7241 0H65.5172L75.3793 10.5172C77.3323 12.6106 80.068 13.7974 82.931 13.7931H117.069C119.932 13.7974 122.668 12.6106 124.621 10.5172L134.483 0H148.276C153.989 0 158.621 4.63154 158.621 10.3448Z" fill="#B4E1FA"/>
<path fill-rule="evenodd" clip-rule="evenodd" d="M134.483 0L124.621 10.5172C122.668 12.6106 119.932 13.7974 117.069 13.7931H82.931C80.068 13.7974 77.3323 12.6106 75.3793 10.5172L65.5172 0H134.483Z" fill="#407093"/>
<path fill-rule="evenodd" clip-rule="evenodd" d="M44.4344 26.1552L54.7793 50.3724C55.1154 51.1604 55.743 51.7881 56.531 52.1242L80.7482 62.469C81.9729 62.9906 82.7678 64.193 82.7678 65.5242C82.7678 66.8553 81.9729 68.0578 80.7482 68.5793L56.531 78.9242C55.743 79.2603 55.1154 79.8879 54.7793 80.6759L44.4344 104.893C43.9129 106.118 42.7104 106.913 41.3793 106.913C40.0481 106.913 38.8457 106.118 38.3241 104.893L27.9793 80.6759C27.6432 79.8879 27.0155 79.2603 26.2275 78.9242L2.0103 68.5793C0.785608 68.0578 -0.00927734 66.8553 -0.00927734 65.5242C-0.00927734 64.193 0.785608 62.9906 2.0103 62.469L26.2275 52.1242C27.0155 51.7881 27.6432 51.1604 27.9793 50.3724L38.3241 26.1552C38.8457 24.9305 40.0481 24.1356 41.3793 24.1356C42.7104 24.1356 43.9129 24.9305 44.4344 26.1552Z" fill="#DA498C"/>
<path fill-rule="evenodd" clip-rule="evenodd" d="M161.676 84.7759L172.021 108.993C172.357 109.781 172.984 110.409 173.772 110.745L197.99 121.09C199.214 121.611 200.009 122.814 200.009 124.145C200.009 125.476 199.214 126.678 197.99 127.2L173.772 137.545C172.984 137.881 172.357 138.509 172.021 139.297L161.676 163.514C161.154 164.739 159.952 165.533 158.621 165.533C157.289 165.533 156.087 164.739 155.565 163.514L145.221 139.297C144.885 138.509 144.257 137.881 143.469 137.545L119.252 127.2C118.027 126.678 117.232 125.476 117.232 124.145C117.232 122.814 118.027 121.611 119.252 121.09L143.469 110.745C144.257 110.409 144.885 109.781 145.221 108.993L155.565 84.7759C156.087 83.5512 157.289 82.7563 158.621 82.7563C159.952 82.7563 161.154 83.5512 161.676 84.7759Z" fill="#DA498C"/>
<path fill-rule="evenodd" clip-rule="evenodd" d="M122.472 28.7621L128.503 42.9C128.7 43.3663 129.072 43.7374 129.538 43.9345L143.676 49.9655C144.39 50.27 144.854 50.9717 144.854 51.7483C144.854 52.5249 144.39 53.2265 143.676 53.531L129.538 59.5621C129.072 59.7591 128.7 60.1302 128.503 60.5966L122.472 74.7345C122.168 75.4489 121.466 75.9126 120.69 75.9126C119.913 75.9126 119.211 75.4489 118.907 74.7345L112.876 60.5966C112.679 60.1302 112.308 59.7591 111.841 59.5621L97.7034 53.531C96.9889 53.2265 96.5253 52.5249 96.5253 51.7483C96.5253 50.9717 96.9889 50.27 97.7034 49.9655L111.841 43.9345C112.308 43.7374 112.679 43.3663 112.876 42.9L118.907 28.7621C119.211 28.0476 119.913 27.584 120.69 27.584C121.466 27.584 122.168 28.0476 122.472 28.7621Z" fill="#DA498C"/>
<path fill-rule="evenodd" clip-rule="evenodd" d="M81.0931 121.866L87.1241 136.004C87.3211 136.47 87.6922 136.841 88.1586 137.038L102.297 143.069C103.011 143.374 103.475 144.075 103.475 144.852C103.475 145.628 103.011 146.33 102.297 146.635L88.1586 152.666C87.6922 152.863 87.3211 153.234 87.1241 153.7L81.0931 167.838C80.7886 168.552 80.0869 169.016 79.3103 169.016C78.5337 169.016 77.832 168.552 77.5275 167.838L71.4965 153.7C71.2995 153.234 70.9283 152.863 70.462 152.666L56.3241 146.635C55.6096 146.33 55.146 145.628 55.146 144.852C55.146 144.075 55.6096 143.374 56.3241 143.069L70.462 137.038C70.9283 136.841 71.2995 136.47 71.4965 136.004L77.5275 121.866C77.832 121.151 78.5337 120.688 79.3103 120.688C80.0869 120.688 80.7886 121.151 81.0931 121.866Z" fill="#B8467A"/>
</g>
<defs>
<clipPath id="clip0">
<rect width="200" height="200" fill="white"/>
</clipPath>
</defs>
</svg>
