<svg width="24" height="24" viewBox="0 0 24 24" fill="none" xmlns="http://www.w3.org/2000/svg">
<path d="M0 12C0 12.4657 0.377451 12.8431 0.843137 12.8431H21.1471L15.8284 18.1569C15.6667 18.3186 15.5833 18.5343 15.5833 18.75C15.5833 18.9657 15.6667 19.1814 15.8284 19.3431C16.1569 19.6716 16.6912 19.6716 17.0196 19.3431L23.7647 12.5931C24.0784 12.2794 24.0784 11.7206 23.7647 11.402L17.0147 4.65686C16.6863 4.32843 16.152 4.32843 15.8235 4.65686C15.4951 4.98529 15.4951 5.51961 15.8235 5.84804L21.1373 11.1618H0.838235C0.372549 11.1569 0 11.5343 0 12Z" fill="black" fill-opacity="0.75"/>
</svg>
