<svg width="24" height="24" viewBox="0 0 24 24" fill="none" xmlns="http://www.w3.org/2000/svg">
<path d="M24 12.0009C24 15.2 22.7542 18.2076 20.4922 20.4697C18.23 22.7318 15.2225 23.9776 12.0234 23.9776C9.56304 23.9776 7.19902 23.2369 5.18685 21.8358C3.84632 20.9023 2.72421 19.7222 1.87135 18.3606V20.8898H0V15.2758H5.61404V17.1471H3.32061C5.11672 20.2043 8.38119 22.1062 12.0234 22.1062C17.5955 22.1062 22.1287 17.573 22.1287 12.0009H24ZM11.9298 1.89568C15.5721 1.89568 18.8365 3.79762 20.6326 6.85475H18.386V8.72609H23.9532V3.11206H22.0819V5.64123C21.229 4.27973 20.1069 3.09952 18.7664 2.16609C16.7542 0.764969 14.3902 0.0243378 11.9298 0.0243378C8.73258 0.0243378 5.73263 1.27084 3.48253 3.53414C1.23682 5.79313 0 8.80001 0 12.0009H1.87135C1.87135 6.42888 6.38353 1.89568 11.9298 1.89568ZM8.39083 6.62083L7.18115 7.82045C6.64042 8.36109 6.58325 9.11173 6.83008 9.87295C7.25731 11.1907 7.70648 12.2254 9.76412 14.2826C11.8217 16.3398 12.9119 16.6729 14.1928 17.2009C14.4877 17.3224 14.7662 17.381 15.0272 17.381C15.4912 17.381 15.8996 17.1958 16.2457 16.8499L17.4503 15.6406L14.3556 12.5414L12.7598 14.1017C12.3367 13.7922 11.8575 13.3774 11.2633 12.7833C10.6621 12.1823 10.204 11.6719 9.85806 11.2166L11.4072 9.6547L8.39083 6.62083Z" fill="white"/>
</svg>
