<svg width="100" height="99" viewBox="0 0 100 99" fill="none" xmlns="http://www.w3.org/2000/svg">
<path d="M76.7881 55.7826C74.1953 56.9793 67.7981 74.2533 67.7981 74.2533C65.5296 81.1141 67.3186 90.1688 70.1237 98.0086C70.2627 98.3971 69.9725 98.805 69.5601 98.805L66.9096 98.9998H36.4492C36.1652 98.9998 35.9198 98.8004 35.8632 98.5219C34.6364 92.5075 32.6518 84.1725 23.447 85.4201C19.0833 86.0114 14.7949 86.7303 12.7238 86.3912C9.77194 85.9081 6.82965 84.6107 5.96644 81.104C5.40658 78.8294 6.22752 77.5404 6.82966 76.4642C7.15416 75.8842 6.86595 75.1157 6.39805 74.7916C5.93233 74.4691 5.40019 74.2437 4.98314 74.0985C4.31658 73.8665 3.87301 73.2139 3.92347 72.5101C3.96615 71.9135 4.25934 71.1925 5.15188 70.493C5.24442 70.4206 5.25978 70.2926 5.18319 70.2034C4.91573 69.8919 4.24618 69.1649 3.1157 68.2634C3.10193 68.2524 3.08857 68.2416 3.07541 68.2307C2.28439 67.5765 2.32587 66.3479 3.14541 65.7294C4.43665 64.7547 7.38013 62.1415 3.59856 60.9787C1.14672 60.2245 0.00427633 59.0326 8.78815e-05 57.2079C-0.00330277 55.6434 0.992348 54.7455 2.29755 53.7408C4.53757 52.0162 6.41021 50.2094 7.9025 47.5529C8.27607 46.8881 8.32991 46.0802 8.03094 45.3787C7.31112 43.6895 5.48636 41.9332 5.88466 40.2229C6.21156 38.819 7.65876 37.1968 7.87776 33.8395C8.79782 19.7298 19.2506 11.2314 32.2601 8.63581C33.7089 8.3468 35.1769 8.16131 36.6506 8.0564L37.7398 7.97882L39.9896 8.81212L55.447 6.7179L76.7881 55.7826Z" fill="#FFD18D"/>
<path d="M27.508 33.8152C27.508 23.8327 31.3973 14.7422 37.7398 7.97882L55.447 6.7179L76.7881 55.7826C74.875 56.6656 71.77 66.3006 70.2733 71.292C70.2735 71.2922 70.2741 71.2938 70.2741 71.2938C70.2737 71.2938 70.2731 71.2938 70.2727 71.294C69.7414 73.0663 69.4125 74.2537 69.4125 74.2537C67.1427 81.1147 67.7989 90.3632 70.6032 98.2036C70.7428 98.5926 70.4516 98.9994 70.0387 98.9994L66.9094 99C63.6061 90.1893 63.1737 81.3399 65.6808 73.1481C65.9125 72.391 65.3473 71.6253 64.5557 71.6116C44.1741 71.2557 27.4811 54.4026 27.508 33.8152V33.8152Z" fill="#FBBD80"/>
<path d="M31.4972 33.8146C31.4972 15.1393 46.6365 0 65.3118 0C74.9691 0 83.6809 4.04844 89.8425 10.5407C89.8425 10.5407 90.9194 11.9389 91.5091 12.6739C96.1557 18.4647 98.1823 25.8122 98.1823 33.8146C98.1823 52.4899 83.9951 66.3259 65.3197 66.3259C55.1939 66.3259 46.3311 63.0489 40.1338 55.997C39.701 55.5043 38.9363 54.7444 38.4295 54.2163C38.1154 53.8888 37.9123 53.6355 37.9123 53.6355C33.8767 48.0661 31.4972 41.2181 31.4972 33.8146V33.8146Z" fill="#F9F8F9"/>
<path d="M37.8853 53.5986C44.0284 62.0992 54.0248 67.6299 65.3117 67.6299C83.9862 67.6299 99.1265 52.4897 99.1265 33.8152C99.1265 24.7462 95.5563 16.5129 89.7463 10.4417C93.7652 16.0043 96.1347 22.8375 96.1347 30.2251C96.1347 48.8996 80.9945 64.0398 62.32 64.0398C52.7125 64.0398 44.0404 60.0329 37.8853 53.5986V53.5986Z" fill="#E8E8E8"/>
<path d="M42.8019 30.0017C42.8019 29.024 42.8988 28.0708 43.0809 27.1467C43.114 26.9788 43.039 26.8087 42.8908 26.7229L39.8325 24.9574C39.6416 24.8473 39.5764 24.6034 39.6865 24.4125L43.7652 17.345C43.8753 17.1541 44.1194 17.0887 44.3101 17.199L47.3699 18.9659C47.5185 19.0517 47.7036 19.0311 47.8326 18.918C49.2617 17.6651 50.937 16.688 52.7752 16.0619C52.9373 16.0067 53.0476 15.8567 53.0476 15.6853V12.1549C53.0476 11.9345 53.2261 11.756 53.4465 11.756H61.606C61.8264 11.756 62.0049 11.9345 62.0049 12.1549V15.6855C62.0049 15.8569 62.1152 16.0069 62.2776 16.0621C64.1173 16.6882 65.7915 17.6653 67.2219 18.9184C67.351 19.0313 67.5361 19.0519 67.6845 18.9661L67.9242 18.8277L70.6989 17.8364C70.8898 17.7261 71.1337 17.7915 71.2438 17.9824L74.3944 24.2783C74.5044 24.4691 74.439 24.7131 74.2484 24.8231L71.6699 26.6272C71.5177 26.7151 71.4435 26.892 71.4814 27.0638C71.696 28.0351 71.8378 29.0208 71.8378 30.0015C71.8378 30.9794 72.1555 31.9323 71.9734 32.8564C71.9403 33.0243 72.0153 33.1945 72.1635 33.2802L75.2219 35.0458C75.4127 35.1559 75.478 35.3998 75.3679 35.5907L71.2889 42.6582C71.1788 42.849 70.9347 42.9145 70.744 42.8042L67.6857 41.0378C67.5365 40.9517 67.3502 40.972 67.2211 41.0861C65.7977 42.3458 63.8319 43.152 62.0013 43.657C61.826 43.7053 61.7024 43.8607 61.7024 44.0426L61.7083 47.378C61.7083 47.5983 61.5298 47.7769 61.3094 47.7769L53.7389 47.8871C53.5185 47.8871 53.34 47.7086 53.34 47.4883L53.4842 44.1315C53.4842 43.9602 53.3739 43.8102 53.2118 43.7549C52.3352 43.4564 51.0761 43.1239 50.2824 42.6739C49.5838 42.2776 48.2828 41.4639 48.2828 41.4639C48.1302 41.3406 47.98 41.2142 47.8326 41.0849C47.7036 40.9718 47.5185 40.9513 47.3699 41.037L44.3101 42.804C44.1192 42.9141 43.8753 42.8488 43.7652 42.658L39.6865 35.5905C39.5764 35.3996 39.6418 35.1557 39.8325 35.0456L42.8908 33.28C43.0392 33.1945 43.114 33.0243 43.0809 32.8562C42.8988 31.9325 42.8019 30.9794 42.8019 30.0017ZM57.5273 38.231C62.0727 38.231 65.7566 34.5471 65.7566 30.0017C65.7566 25.4562 62.0727 21.7724 57.5273 21.7724C52.9818 21.7724 49.298 25.4562 49.298 30.0017C49.298 34.5471 52.9818 38.231 57.5273 38.231Z" fill="#766E7A"/>
<path d="M69.5117 39.2701C69.6824 39.2701 69.8316 39.1606 69.8887 38.9997C70.0738 38.4785 70.3073 37.9659 70.5929 37.4691C70.8803 36.9727 71.2066 36.5139 71.566 36.0941C71.6773 35.964 71.6981 35.7798 71.6123 35.6314L70.6368 33.9432C70.5265 33.7524 70.5919 33.5084 70.7828 33.3981L74.9383 30.9989C75.1292 30.8889 75.3731 30.9543 75.4832 31.1451L76.4572 32.8333C76.5427 32.9815 76.7127 33.0559 76.8808 33.0246C77.98 32.8199 79.118 32.8161 80.2375 33.0232C80.4055 33.0543 80.575 32.9801 80.6604 32.8323L81.6363 31.1447C81.7466 30.9541 81.9905 30.8889 82.1812 30.9989L86.3351 33.3983C86.5258 33.5084 86.5912 33.7524 86.4811 33.9432L85.5072 35.63C85.4218 35.778 85.4424 35.9621 85.5533 36.0919C85.7332 36.3025 85.9027 36.5201 86.0615 36.7441C86.0615 36.7441 86.3878 37.4894 86.5842 37.8702C86.7769 38.2436 87.0013 38.7212 87.1405 39.1158C87.1973 39.2771 87.3467 39.3872 87.5179 39.3872L89.3043 39.5314C89.5247 39.5314 89.7032 39.7099 89.7032 39.9303L89.7924 44.1951C89.7924 44.4155 89.6139 44.594 89.3935 44.594L87.3986 44.6964C87.2275 44.6964 87.0781 44.8065 87.0212 44.9678C86.8375 45.4888 86.5362 45.9266 86.249 46.423C85.9616 46.9194 85.5513 47.5944 85.1919 48.0142C85.0806 48.1443 85.0598 48.3285 85.1456 48.4769L86.2845 50.1555C86.3948 50.3464 86.3293 50.5903 86.1385 50.7006L82.1834 52.8309C81.9925 52.941 81.7486 52.8756 81.6385 52.6847L80.7575 51.0484C80.6719 50.9003 80.502 50.8259 80.3337 50.8574C79.2361 51.062 77.8553 51.0857 76.7346 50.8787C76.5667 50.8476 76.3971 50.922 76.3118 51.0698L75.4206 52.5677C75.3105 52.7585 75.0666 52.8237 74.8757 52.7137L71.1542 50.5668C70.9633 50.4567 70.8981 50.2125 71.0082 50.0219L71.2557 49.1212L71.6105 48.5065C71.6959 48.3585 71.6753 48.1744 71.5644 48.0445C70.8243 47.1775 70.2604 46.1898 69.8881 45.1373C69.831 44.9762 69.6818 44.8663 69.5109 44.8663H67.5611C67.3407 44.8663 67.1622 44.6878 67.1622 44.4674V39.6686C67.1622 39.4482 67.3407 39.2697 67.5611 39.2697H69.5117V39.2701ZM78.5592 45.0602C80.2106 45.0602 81.5509 43.7199 81.5509 42.0684C81.5509 40.417 80.2106 39.0767 78.5592 39.0767C76.9077 39.0767 75.5674 40.417 75.5674 42.0684C75.5674 43.7199 76.9077 45.0602 78.5592 45.0602Z" fill="#857E87"/>
</svg>
