<svg width="34" height="34" viewBox="0 0 34 34" fill="none" xmlns="http://www.w3.org/2000/svg">
<path d="M33.7082 28.0736L27.9635 22.3289L30.7809 19.5115C31.025 19.2674 31.1254 18.9143 31.046 18.5783C30.9667 18.2423 30.7191 17.9714 30.3916 17.8622L13.4873 12.2274C13.1295 12.1081 12.7348 12.2013 12.468 12.4681C12.2012 12.7349 12.108 13.1295 12.2273 13.4874L17.8621 30.3917C17.9714 30.7193 18.2423 30.9669 18.5782 31.0462C18.9142 31.1257 19.2673 31.0253 19.5115 30.7811L22.3289 27.9637L28.0735 33.7083C28.2681 33.9028 28.523 34.0001 28.7779 34.0001C29.0327 34.0001 29.2877 33.9029 29.4822 33.7083L33.7083 29.4822C34.0973 29.0932 34.0973 28.4626 33.7082 28.0736ZM28.7778 31.5953L23.0331 25.8507C22.6442 25.4617 22.0134 25.4617 21.6244 25.8507L19.2424 28.2327L14.7473 14.7474L28.2326 19.2425L25.8505 21.6246C25.4619 22.0132 25.4615 22.6443 25.8505 23.0333L31.5952 28.7779L28.7778 31.5953Z" fill="black"/>
</svg>
