<svg width="24" height="24" viewBox="0 0 24 24" fill="none" xmlns="http://www.w3.org/2000/svg">
<path d="M10.4616 20.3077C12.6461 20.3073 14.7678 19.5759 16.4886 18.2302L21.8991 23.6406L23.6394 21.9004L18.2289 16.4899C19.5753 14.7689 20.3071 12.6467 20.3077 10.4616C20.3077 5.03265 15.8905 0.615417 10.4616 0.615417C5.03263 0.615417 0.615402 5.03265 0.615402 10.4616C0.615402 15.8905 5.03263 20.3077 10.4616 20.3077ZM10.4616 3.07696C14.5342 3.07696 17.8462 6.38896 17.8462 10.4616C17.8462 14.5342 14.5342 17.8462 10.4616 17.8462C6.38895 17.8462 3.07695 14.5342 3.07695 10.4616C3.07695 6.38896 6.38895 3.07696 10.4616 3.07696Z" fill="black"/>
</svg>
