<?xml version="1.0" encoding="utf-8"?><svg xmlns="http://www.w3.org/2000/svg" xmlns:xlink="http://www.w3.org/1999/xlink"><symbol viewBox="0 0 30 20" id="arrow-next" xmlns="http://www.w3.org/2000/svg"><path d="M0 10c0 .582.472 1.054 1.054 1.054h25.38l-6.649 6.642a1.05 1.05 0 000 1.483c.411.41 1.079.41 1.49 0l8.43-8.438c.393-.392.393-1.09 0-1.488L21.269.82a1.054 1.054 0 00-1.489 1.49l6.643 6.641H1.048A1.04 1.04 0 000 10z"/></symbol><symbol fill="none" stroke="#000" stroke-linecap="round" stroke-linejoin="round" stroke-width="2" viewBox="0 0 22 21" id="cart" xmlns="http://www.w3.org/2000/svg"><path d="M17.667 19.667a.833.833 0 100-1.667.833.833 0 000 1.667zm-9.167 0A.833.833 0 108.5 18a.833.833 0 000 1.667zM1.833 1.833h3.334L7.4 12.992a1.667 1.667 0 001.667 1.341h8.1a1.667 1.667 0 001.666-1.341L20.167 6H6"/></symbol><symbol fill="none" viewBox="0 0 21 20" id="favorite" xmlns="http://www.w3.org/2000/svg"><path stroke="#000" stroke-linecap="round" stroke-linejoin="round" stroke-width="2" d="M17.69 3.415a4.468 4.468 0 00-1.452-1.047A4.19 4.19 0 0014.525 2a4.19 4.19 0 00-1.712.368 4.468 4.468 0 00-1.451 1.047l-.862.93-.862-.93C8.798 2.509 7.66 2 6.474 2S4.15 2.51 3.31 3.415 2 5.548 2 6.828c0 1.28.471 2.509 1.31 3.414l.863.93L10.5 18l6.327-6.828.862-.93c.416-.448.745-.98.97-1.566a5.173 5.173 0 00.001-3.695 4.87 4.87 0 00-.97-1.566z"/></symbol><symbol fill="none" viewBox="0 0 100 100" id="mind" xmlns="http://www.w3.org/2000/svg"><path fill="#FFCEBF" d="M76.788 56.346c-2.593 1.209-8.99 18.657-8.99 18.657-2.269 6.93-.48 16.077 2.326 23.996a.602.602 0 01-.564.804l-2.65.197H36.45a.599.599 0 01-.587-.483c-1.227-6.075-3.211-14.494-12.416-13.234-4.364.597-8.652 1.323-10.723.98-2.952-.487-5.894-1.798-6.758-5.34-.56-2.297.261-3.6.864-4.686.324-.586.036-1.362-.432-1.69-.466-.326-.998-.553-1.415-.7a1.593 1.593 0 01-1.06-1.604c.043-.603.336-1.331 1.229-2.038a.202.202 0 00.031-.293c-.267-.314-.937-1.049-2.067-1.96a2.924 2.924 0 01-.04-.032c-.792-.66-.75-1.902.07-2.527 1.29-.984 4.234-3.624.452-4.798C1.147 60.833.004 59.629 0 57.785c-.003-1.58.992-2.486 2.297-3.501 2.24-1.742 4.113-3.567 5.605-6.25a2.521 2.521 0 00.129-2.197c-.72-1.706-2.545-3.48-2.146-5.208.326-1.418 1.774-3.056 1.993-6.448C8.798 19.93 19.25 11.345 32.26 8.723a34.891 34.891 0 014.39-.585l1.09-.079 2.25.842 15.457-2.115 21.341 49.56z"/><path fill="#FFB09E" d="M27.508 34.157A38.25 38.25 0 0137.74 8.059l17.707-1.273 21.341 49.56c-1.913.892-5.018 10.624-6.515 15.666l.001.002h-.001c-.531 1.79-.86 2.99-.86 2.99-2.27 6.93-1.614 16.272 1.19 24.192a.601.601 0 01-.564.803l-3.13.001c-3.303-8.9-3.735-17.838-1.228-26.113a1.203 1.203 0 00-1.125-1.552c-20.382-.36-37.075-17.383-37.048-38.178z"/><path fill="#F9F8F9" d="M31.497 34.156C31.497 15.292 46.637 0 65.312 0c9.657 0 18.369 4.09 24.53 10.647 0 0 1.078 1.412 1.667 2.155 4.647 5.85 6.673 13.27 6.673 21.354 0 18.864-14.187 32.84-32.862 32.84-10.126 0-18.989-3.31-25.186-10.433-.433-.498-1.198-1.266-1.704-1.8a9.803 9.803 0 01-.518-.586c-4.035-5.625-6.415-12.543-6.415-20.02z"/><path fill="#E8E8E8" d="M37.885 54.14c6.143 8.586 16.14 14.173 27.427 14.173 18.674 0 33.814-15.293 33.814-34.156 0-9.16-3.57-17.477-9.38-23.61 4.02 5.619 6.389 12.521 6.389 19.983 0 18.864-15.14 34.157-33.815 34.157-9.608 0-18.28-4.048-24.435-10.547z"/><path fill="#407093" d="M42.802 30.305c0-.988.097-1.95.279-2.884a.404.404 0 00-.19-.428l-3.058-1.784a.405.405 0 01-.146-.55l4.078-7.139a.397.397 0 01.545-.147l3.06 1.784a.395.395 0 00.463-.048 14.64 14.64 0 014.942-2.885.402.402 0 00.273-.38v-3.566a.4.4 0 01.399-.403h8.16a.4.4 0 01.398.403v3.566a.4.4 0 00.273.38 14.64 14.64 0 014.944 2.886c.13.114.314.134.463.048l.24-.14 2.774-1.001a.396.396 0 01.545.147l3.15 6.36a.405.405 0 01-.145.55l-2.579 1.822a.407.407 0 00-.189.441c.215.981.357 1.977.357 2.968 0 .987.318 1.95.136 2.883a.404.404 0 00.19.428l3.058 1.784c.19.111.256.357.146.55l-4.079 7.14a.397.397 0 01-.545.147l-3.058-1.785a.396.396 0 00-.465.05c-1.423 1.271-3.389 2.086-5.22 2.596a.405.405 0 00-.298.39l.005 3.369a.4.4 0 01-.398.403l-7.571.11a.4.4 0 01-.399-.402l.144-3.39a.402.402 0 00-.272-.381c-.877-.302-2.136-.638-2.93-1.092-.698-.4-2-1.222-2-1.222a14.524 14.524 0 01-.45-.383.396.396 0 00-.462-.048l-3.06 1.784a.397.397 0 01-.545-.147l-4.078-7.139a.405.405 0 01.146-.55l3.058-1.784a.404.404 0 00.19-.428 15.031 15.031 0 01-.279-2.883zm14.725 8.312c4.546 0 8.23-3.72 8.23-8.312 0-4.592-3.684-8.313-8.23-8.313-4.545 0-8.229 3.721-8.229 8.313 0 4.591 3.684 8.312 8.23 8.312z"/><path fill="#2B4D66" d="M69.512 39.667c.17 0 .32-.11.377-.273a9.297 9.297 0 011.677-2.935.409.409 0 00.046-.468l-.975-1.705a.405.405 0 01.146-.55l4.155-2.424a.397.397 0 01.545.148l.974 1.705a.4.4 0 00.424.193 9.106 9.106 0 013.356-.001.4.4 0 00.423-.193l.976-1.705a.397.397 0 01.545-.147l4.154 2.424c.19.11.256.357.146.55l-.974 1.704a.409.409 0 00.046.466c.18.213.35.433.508.66 0 0 .327.752.523 1.137.193.377.417.86.556 1.258a.402.402 0 00.378.274l1.786.146a.4.4 0 01.4.403l.088 4.307a.4.4 0 01-.399.404l-1.995.103a.402.402 0 00-.377.274c-.184.526-.485.969-.772 1.47-.287.501-.698 1.183-1.057 1.607a.409.409 0 00-.046.468l1.138 1.695c.11.193.045.44-.146.55l-3.955 2.153a.397.397 0 01-.545-.148l-.88-1.653a.4.4 0 00-.424-.193c-1.098.207-2.479.23-3.6.022a.4.4 0 00-.422.193l-.891 1.513a.397.397 0 01-.545.147l-3.722-2.168a.405.405 0 01-.146-.55l.248-.91.354-.622a.409.409 0 00-.046-.466 9.32 9.32 0 01-1.676-2.937.402.402 0 00-.377-.274h-1.95a.4.4 0 01-.399-.402v-4.848a.4.4 0 01.399-.403h1.95zm9.047 5.848c1.651 0 2.992-1.354 2.992-3.022 0-1.668-1.34-3.022-2.992-3.022-1.651 0-2.992 1.354-2.992 3.022 0 1.668 1.34 3.022 2.992 3.022z"/></symbol><symbol fill="none" stroke="#000" stroke-linecap="round" stroke-linejoin="round" stroke-width="2" viewBox="0 0 20 20" id="minus" xmlns="http://www.w3.org/2000/svg"><path d="M4.167 10h11.666"/></symbol><symbol viewBox="0 0 20 20" id="mouse" xmlns="http://www.w3.org/2000/svg"><path d="M19.733 14.569l-5.265-5.265 2.582-2.582a.913.913 0 00-.357-1.511L1.202.047A.913.913 0 00.047 1.202L5.21 16.693a.913.913 0 001.511.357l2.582-2.582 5.265 5.265a.91.91 0 001.29 0l3.874-3.873a.913.913 0 000-1.291zm-4.519 3.227L9.95 12.532a.913.913 0 00-1.291 0l-2.183 2.183-4.12-12.359 12.359 4.12-2.183 2.183a.913.913 0 000 1.29l5.264 5.265-2.582 2.582z"/></symbol><symbol fill="none" stroke="#000" stroke-linecap="round" stroke-linejoin="round" stroke-width="2" viewBox="0 0 20 20" id="plus" xmlns="http://www.w3.org/2000/svg"><path d="M10 4.167v11.666M4.167 10h11.666"/></symbol><symbol fill="none" stroke="#DA498C" stroke-linecap="round" stroke-linejoin="round" viewBox="0 0 16 16" id="social-facebook" xmlns="http://www.w3.org/2000/svg"><path d="M12 1.333h-2a3.333 3.333 0 00-3.333 3.334v2h-2v2.666h2v5.334h2.666V9.333h2L12 6.667H9.333v-2A.667.667 0 0110 4h2V1.333z"/></symbol><symbol fill="none" stroke="#DA498C" stroke-linecap="round" stroke-linejoin="round" viewBox="0 0 16 16" id="social-instagram" xmlns="http://www.w3.org/2000/svg"><path d="M11.333 1.333H4.667a3.333 3.333 0 00-3.334 3.334v6.666a3.333 3.333 0 003.334 3.334h6.666a3.333 3.333 0 003.334-3.334V4.667a3.333 3.333 0 00-3.334-3.334z"/><path d="M10.667 7.58a2.667 2.667 0 11-5.276.782 2.667 2.667 0 015.276-.782zm1-3.247h.01"/></symbol><symbol fill="none" stroke="#DA498C" stroke-linecap="round" stroke-linejoin="round" viewBox="0 0 16 16" id="social-twitter" xmlns="http://www.w3.org/2000/svg"><path d="M15.333 2a7.266 7.266 0 01-2.093 1.02 2.987 2.987 0 00-5.24 2v.667a7.107 7.107 0 01-6-3.02s-2.667 6 3.333 8.666a7.76 7.76 0 01-4.666 1.334C6.667 16 14 12.667 14 5c0-.186-.018-.37-.053-.553A5.146 5.146 0 0015.333 2z"/></symbol><symbol fill="none" stroke="#000" stroke-linecap="round" stroke-linejoin="round" stroke-width="2" viewBox="0 0 12 20" id="switch-next" xmlns="http://www.w3.org/2000/svg"><path d="M1.833 18.333L10.167 10 1.833 1.667"/></symbol><symbol fill="none" viewBox="0 0 18 20" id="user" xmlns="http://www.w3.org/2000/svg"><path stroke="#000" stroke-linecap="round" stroke-linejoin="round" stroke-width="2" d="M15 19v-1.667c0-.884-.342-1.732-.952-2.357A3.21 3.21 0 0011.75 14h-6.5a3.21 3.21 0 00-2.298.976A3.377 3.377 0 002 17.333V19M8.5 8a3.5 3.5 0 100-7 3.5 3.5 0 000 7z"/></symbol></svg>