<svg width="200" height="200" fill="none" xmlns="http://www.w3.org/2000/svg"><g clip-path="url(#clip0)"><path d="M97.175.646L7.617 43.881a3.249 3.249 0 00-1.837 2.926v106.386a3.25 3.25 0 001.837 2.926l89.558 43.235a6.496 6.496 0 005.65 0l89.558-43.235a3.25 3.25 0 001.836-2.926V46.807a3.248 3.248 0 00-1.836-2.926L102.825.646a6.5 6.5 0 00-5.65 0z" fill="#FFE17D"/><path d="M6.32 45.029a3.236 3.236 0 00-.54 1.778v106.386a3.25 3.25 0 001.837 2.926l89.558 43.235c.892.43 1.858.646 2.825.646V90.253L6.32 45.03z" fill="#FFBC3D"/><path d="M193.679 45.029c.342.52.541 1.132.541 1.778v106.386a3.25 3.25 0 01-1.837 2.926l-89.558 43.235A6.507 6.507 0 01100 200V90.253l93.679-45.224z" fill="#FFD164"/><path d="M32.581 147.522a3.24 3.24 0 01-1.409-.323l-13.826-6.675a3.247 3.247 0 01-1.514-4.338 3.255 3.255 0 014.337-1.513l13.827 6.676a3.246 3.246 0 011.514 4.337 3.244 3.244 0 01-2.929 1.836z" fill="#DA498C"/><path d="M45.307 139.239a3.24 3.24 0 01-1.409-.324l-26.534-12.808a3.25 3.25 0 01-1.513-4.338 3.258 3.258 0 014.337-1.513l26.534 12.809a3.248 3.248 0 01-1.415 6.174z" fill="#FFF6D8"/><path d="M161.933 60.302L67.925 14.886 43.143 26.898l94.22 45.486 24.57-12.082z" fill="#DA498C"/><path d="M137.363 72.384v35.237a1.624 1.624 0 002.331 1.463l20.403-9.85a3.248 3.248 0 001.836-2.925V60.301l-24.57 12.082z" fill="#B8467A"/></g><defs><clipPath id="clip0"><path fill="#fff" d="M0 0h200v200H0z"/></clipPath></defs></svg>