<svg width="200" height="200" fill="none" xmlns="http://www.w3.org/2000/svg"><g clip-path="url(#clip0)"><path d="M162.106 87.379c-.218-.449-.598-1.503-1.073-2.82-1.582-4.397-4.61-3.913-4.61-3.913s.614 1.03-.411 3.698c-.309 1.824-10.739 15.38-12.625 11.888a1.64 1.64 0 01-.163-.974c.59-5.1.787-10.319.599-15.584-.841-24.338-9.769-49.743-25.139-69.703-.044-.057-.084-.109-.129-.161-.24-.312-.482-.622-.726-.93l-.001-.002v-.002a110.08 110.08 0 00-2.002-2.46c-1.758-2.1-2.65-.322-4.565-2.284-.624-.64-1.718-.257-1.819.632-2.221 19.985-6.897 27.662-11.95 33.866-6.403 6.855-16.133 14.907-20.136 25.682-1.977 4.411-5.345 8.665-6.374 13.004-.166.893-1.36.978-1.831.447-3.951-3.936-6.898-11.667-8.075-18.537-.399-2.323-1.857-.505-1.821-2.45a.708.708 0 00-1.211-.492c-20.54 20.42-26.946 48.809-23.216 78.603.607 4.949.799 9.915 2.054 14.586 4.157 16.172 15.394 28.71 28.353 37.804 11.678 8.195 24.48 13.844 39.56 12.47a.068.068 0 01-.014-.002c33.202-2.466 58.201-26.927 62.877-59.92 3.314-20.8-1.199-40.01-5.552-52.446z" fill="#FFD164"/><path d="M103.259 199.868c-31.243 2.052-60.562-20.073-68.335-50.322-1.256-4.671-2.378-9.902-2.986-14.851-3.73-29.794 6.828-62.034 27.368-82.453a.708.708 0 011.211.49c-.036 1.948.161 4.169.56 6.494-16.372 20.347-24.42 48.882-21.092 75.469.608 4.949 1.73 10.18 2.986 14.851 7.101 27.633 32.188 48.491 60.288 50.322z" fill="#FFBC3D"/><path d="M144.134 96.862c.036.004.072.008.108.008h-.112l.004-.008zM77.356 59.866a70.746 70.746 0 00-1.723 3.585l-.004-.008a65.834 65.834 0 011.727-3.577z" fill="#F48931"/><path d="M139.164 123.552c-.887-2.253-1.13-2.921-1.677-4.041a.464.464 0 00-.871.113c-.294 1.465-.363 2.481-1.115 4.442-1.179 3.142-3.656 5.916-6.057 8.187-.319.308-.777.222-1.015-.066-.108-.193-.17-.379-.153-.527 2.263-18.845-3.737-40.15-16.039-56.127l-.084-.104a92.02 92.02 0 00-.159-.205c-1.637-2.102-2.959-3.213-4.812-5.11a.697.697 0 00-1.19.414c-1.455 13.088-3.787 20-7.097 24.062-3.222 3.959-6.53 5.062-10.224 10.711-3.377 5.167-5.19 9.797-6.214 14.04-.133.549-2.294 1.021-2.663.592-1.052-1.217-2.302-2.969-3.366-5.37a25.835 25.835 0 01-1.548-4.684c-.58-2.526-1.406-2.965-1.421-4.53a.464.464 0 00-.794-.321c-14.325 14.24-18.56 34.821-14.656 55.336 5.438 28.572 27.3 39.678 43.146 39.43.693-.011 1.576.129 2.502.057 9.783-.758 31.388-5.77 39.313-33.08 4.536-15.632 1.135-30.682-2.134-40.092-.417-1.206-1.672-3.127-1.672-3.127z" fill="#DA498C"/><path d="M83.853 110.981l-1.396 3.621c.399-1.175.861-2.39 1.396-3.621z" fill="#DC4955"/><path d="M103.938 199.828c-1.018.112-1.995.088-2.719.141-15.849.165-39.764-10.401-45.2-38.972-3.907-20.516 3.005-43.538 17.329-57.778a.463.463 0 01.793.322 29.89 29.89 0 00.74 6.337c-10.38 14.155-14.964 33.556-11.62 51.119 4.933 25.911 25.15 37.113 40.677 38.831z" fill="#B8467A"/><path d="M91.688 179.264a3.018 3.018 0 01-2.768-4.216l17.17-39.708a3.018 3.018 0 015.539 2.395l-17.17 39.708a3.02 3.02 0 01-2.771 1.821zm-6.802-24.635h-.105c-5.743-.062-10.358-5.322-10.289-11.725.069-6.365 4.742-11.501 10.437-11.501h.102c2.869.031 5.525 1.326 7.48 3.648 1.844 2.191 2.842 5.059 2.81 8.078-.033 3.018-1.093 5.864-2.984 8.014-1.98 2.251-4.622 3.486-7.45 3.486zm.043-17.191c-2.398 0-4.37 2.471-4.402 5.531-.033 3.076 1.904 5.599 4.32 5.625 1.085.027 2.133-.498 2.958-1.436.938-1.067 1.463-2.521 1.48-4.095.017-1.574-.477-3.039-1.391-4.125-.805-.955-1.844-1.488-2.927-1.5h-.038zm30.14 44.793l-.103-.001c-5.742-.062-10.357-5.322-10.288-11.725.069-6.365 4.741-11.501 10.437-11.501h.102c5.742.062 10.358 5.322 10.289 11.725v.001c-.069 6.365-4.742 11.501-10.437 11.501zm.045-17.192c-2.398 0-4.368 2.472-4.401 5.531-.034 3.076 1.904 5.599 4.319 5.625 2.4.037 4.406-2.455 4.439-5.531v.001c.034-3.076-1.904-5.6-4.319-5.626h-.038zm7.375 5.658h.004-.004z" fill="#F5FCFF"/><path d="M78.179 17.417c-1.387 7.351-6.156 11.12-8.235 12.79a.802.802 0 01-1.2-.229c-1.33-2.313-4.484-7.423-3.098-14.77.314-1.664.157-3.534.838-4.971 2.329-4.911 6.237-8.387 7.845-9.68a.802.802 0 011.2.228c1.047 1.822 3.486 6.61 3.798 12.151.084 1.494-.854 2.92-1.148 4.481z" fill="#DA498C"/><path d="M79.045 17.539c-1.384 7.35-7.306 12.67-9.386 14.34a.802.802 0 01-1.2-.226c-1.327-2.313-4.904-9.41-3.516-16.758.342-1.814.962-3.504 1.734-5.045.31 5.536 2.748 10.324 3.794 12.147a.802.802 0 001.2.225c1.564-1.255 5.31-4.582 7.652-9.286a18.825 18.825 0 01-.278 4.603z" fill="#B8467A"/><path d="M167.381 40.719c1.446 6.658-1.926 11.856-3.219 13.97a.801.801 0 01-1.132.246c-2.055-1.392-7.009-4.544-8.456-11.203-.241-1.109-.989-2.294-.984-3.382.022-5.443 2.695-10.36 3.772-12.122a.802.802 0 011.133-.246c1.566 1.061 5.443 3.974 7.838 8.248.748 1.334.704 2.906 1.048 4.489z" fill="#DA498C"/><path d="M164.593 56.044a.805.805 0 01-1.131.245c-2.056-1.392-8.087-5.975-9.535-12.634a15.358 15.358 0 01-.314-4.067c2.394 4.277 6.269 7.19 7.838 8.252a.804.804 0 001.13-.246c1.026-1.677 3.505-6.224 3.75-11.362.749 1.332 1.352 2.796 1.698 4.382 1.445 6.659-2.144 13.313-3.436 15.43zm-52.599 19.18c-1.763 9.58-4.849 15.164-7.649 18.605-3.223 3.959-6.204 5.242-9.902 10.891-1.77 2.708-3.376 6.8-4.534 10.091a8.041 8.041 0 01-7.56 5.355l-2.032.008c1.376-.621 1.224-3.91 2.14-5.572 1.2-3.321 2.762-6.948 4.744-9.882 3.698-5.649 6.679-6.932 9.902-10.891 3.307-4.064 7.009-11.113 8.465-24.202a.699.699 0 011.191-.414 71.01 71.01 0 014.615 5.226c.209.262.414.523.62.785zm28.836 51.457a7.834 7.834 0 01-.151.268c-2.024 3.447-5.788 5.497-9.786 5.497h-1.864l.004-.004a.645.645 0 00.411-.189c2.402-2.269 4.357-5.5 5.536-8.642a32.85 32.85 0 001.344-4.462v-.008c.06-.274.117-.544.169-.793.088-.435.676-.515.869-.117a71.156 71.156 0 012.245 5.118v.004c.398 1.01.813 2.125 1.223 3.328z" fill="#B8467A"/><path d="M144.242 96.87h-.112l.004-.008a.98.98 0 00.108.008z" fill="#F48931"/><path d="M108.501.95c-2.22 19.985-7.874 30.748-12.927 36.952-6.401 6.856-15.937 14.774-19.94 25.55l-.005-.009c-.927 2.074-1.775 4.306-2.529 6.54l-.005-.01c-.116.348-.223.696-.342 1.042l.002.005a84.232 84.232 0 00-1.773 6.296c-.088.49-.495.74-.917.773v.004h2.827a8.038 8.038 0 007.705-5.725c.928-3.1 2.097-6.733 3.08-8.925l.003.008c4.004-10.775 13.54-18.693 19.941-25.55 4.571-5.612 9.636-14.955 12.203-31.483a106.585 106.585 0 00-5.504-6.1c-.624-.64-1.718-.257-1.819.632zm47.22 74.394a49.753 49.753 0 01-2.309 8.035c-.048.283-.277.873-.635 1.648l-.12.258a40.859 40.859 0 01-.571 1.156l-.106.206c-2.075 4.014-5.857 10.098-7.794 10.123l-.056.1.402-.005a16.082 16.082 0 0012.649-6.41c1.659-2.207 3.238-4.484 3.851-5.897-1.581-4.393-4.204-11.716-5.311-9.214z" fill="#FFBC3D"/></g><defs><clipPath id="clip0"><path fill="#fff" d="M0 0h200v200H0z"/></clipPath></defs></svg>