<svg width="200" height="200" fill="none" xmlns="http://www.w3.org/2000/svg"><path d="M190.281 117.965l2.129 20.312-15.879 12.856-5.82 19.578-19.578 5.824-12.856 15.875-20.312-2.129L100 200l-17.965-9.719-20.312 2.129-12.856-15.879-19.578-5.82-5.824-19.578L7.59 138.277l2.129-20.312L0 100l9.719-17.965-2.13-20.312 15.88-12.856 5.82-19.578 19.578-5.824L61.723 7.59l20.312 2.129L100 0l17.965 9.719 20.312-2.13 12.856 15.88 19.578 5.82 5.824 19.578 15.875 12.856-2.129 20.312L200 100l-9.719 17.965z" fill="#FFD164"/><path d="M190.281 117.965l2.129 20.312-15.879 12.856-5.82 19.578-19.578 5.824-12.856 15.875-20.312-2.129L100 200V0l17.965 9.719 20.312-2.13 12.856 15.88 19.578 5.82 5.824 19.578 15.875 12.856-2.129 20.312L200 100l-9.719 17.965z" fill="#FFBC3D"/><path d="M129.394 157.921h-11.719v-54.883h17.628c9.719 0 17.626 7.908 17.626 17.627 0 9.72-7.907 17.627-17.626 17.627h-5.909v19.629zm0-31.348h5.909a5.914 5.914 0 005.908-5.908 5.914 5.914 0 00-5.908-5.908h-5.909v11.816z" fill="#2B4D66"/><path d="M94.14 103.035h11.719v54.887H94.141v-54.887z" fill="#407093"/><path d="M100 103.035h5.859v54.887H100v-54.887z" fill="#2B4D66"/><path d="M69.887 157.921h-9.599l-14.611-50.689 11.26-3.246 8.15 28.277 8.152-28.277 11.26 3.246-14.612 50.689z" fill="#407093"/><path d="M127.105 48.379l-4.5 39.754h-45.21l-4.5-39.754 16.253 10.219L100 42.078l10.852 16.52 16.253-10.22z" fill="#DA498C"/><path d="M127.105 48.379l-4.5 39.754H100V42.078l10.852 16.52 16.253-10.22z" fill="#B8467A"/></svg>