<svg width="200" height="200" fill="none" xmlns="http://www.w3.org/2000/svg"><path d="M193.104 193.104H6.896V22.414c0-.953.772-1.725 1.725-1.725h182.758c.953 0 1.725.772 1.725 1.725v170.69z" fill="#FFD164"/><path d="M193.104 162.07H6.896v27.586h186.208V162.07zm0-79.608c-.707.175-1.434.296-2.195.296a9.091 9.091 0 01-9.091-9.09 9.091 9.091 0 01-18.182 0 9.091 9.091 0 01-18.182 0 9.091 9.091 0 01-18.182 0 9.091 9.091 0 01-18.182 0 9.091 9.091 0 01-18.182 0 9.091 9.091 0 01-18.182 0 9.091 9.091 0 01-18.182 0 9.091 9.091 0 01-18.182 0 9.091 9.091 0 01-18.182 0 9.09 9.09 0 01-9.091 9.09c-.761 0-1.488-.12-2.195-.296v6.971c.724.1 1.443.222 2.195.222 3.374 0 6.508-1.05 9.09-2.842a15.9 15.9 0 009.093 2.842c3.374 0 6.508-1.05 9.09-2.843a15.898 15.898 0 009.091 2.843c3.375 0 6.509-1.05 9.092-2.843a15.898 15.898 0 009.09 2.843c3.375 0 6.509-1.05 9.092-2.843a15.898 15.898 0 009.09 2.843c3.375 0 6.509-1.05 9.092-2.843a15.893 15.893 0 009.09 2.843c3.375 0 6.508-1.05 9.091-2.843a15.9 15.9 0 009.091 2.843c3.375 0 6.508-1.05 9.091-2.843a15.9 15.9 0 009.091 2.843c3.375 0 6.509-1.05 9.091-2.843a15.9 15.9 0 009.091 2.843c3.375 0 6.509-1.05 9.091-2.843a15.9 15.9 0 009.091 2.843c3.375 0 6.509-1.05 9.091-2.843a15.9 15.9 0 009.091 2.843c.752 0 1.471-.121 2.195-.222v-6.971z" fill="#FFBC3D"/><path d="M120.689 103.449H24.138v68.965h96.551v-68.965zm55.174 0h-41.379v68.965h41.379v-68.965z" fill="#B4E1FA"/><path d="M175.863 103.449h-41.379v10.345h41.379v-10.345z" fill="#A0D2F0"/><path d="M175.862 135.632l-24.138-32.184h-6.896l31.034 41.38v-9.196z" fill="#DAF0FD"/><path d="M137.931 103.448h-3.448v13.793l41.379 55.173v-18.391l-37.931-50.575z" fill="#A0D2F0"/><path d="M159.483 113.793l-7.759-10.345h-6.896l7.758 10.345h6.897z" fill="#B4E1FA"/><path d="M110.345 172.414h-6.897l-51.724-68.966h6.897l51.724 68.966z" fill="#DAF0FD"/><path d="M96.552 172.414H82.759l-51.725-68.966h13.794l51.724 68.966z" fill="#A0D2F0"/><path d="M120.689 103.449H24.138v10.345h96.551v-10.345z" fill="#A0D2F0"/><path d="M66.38 113.793l-7.76-10.345h-6.896l7.759 10.345h6.896z" fill="#B4E1FA"/><path d="M81.818 82.758a9.091 9.091 0 01-9.091-9.09v-8.15h18.182v8.15a9.09 9.09 0 01-9.091 9.09zm36.364 0a9.091 9.091 0 01-9.091-9.09v-8.15h18.182v8.15a9.09 9.09 0 01-9.091 9.09zm-72.727 0a9.091 9.091 0 01-9.091-9.09v-8.15h18.182v8.15a9.09 9.09 0 01-9.091 9.09zm-36.364 0A9.091 9.091 0 010 73.668v-8.15h18.182v8.15a9.09 9.09 0 01-9.091 9.09zm145.454 0a9.092 9.092 0 01-9.091-9.09v-8.15h18.182v8.15a9.09 9.09 0 01-9.091 9.09z" fill="#B8467A"/><path d="M63.636 82.758a9.091 9.091 0 01-9.09-9.09v-8.15h18.181v8.15a9.09 9.09 0 01-9.09 9.09zm72.728 0a9.091 9.091 0 01-9.091-9.09v-8.15h18.182v8.15a9.092 9.092 0 01-9.091 9.09z" fill="#C7CFE2"/><path d="M190.909 82.758a9.091 9.091 0 01-9.091-9.09v-8.15H200v8.15a9.09 9.09 0 01-9.091 9.09z" fill="#B8467A"/><path d="M172.727 82.758a9.092 9.092 0 01-9.091-9.09v-8.15h18.182v8.15a9.09 9.09 0 01-9.091 9.09zm-145.454 0a9.091 9.091 0 01-9.091-9.09v-8.15h18.182v8.15a9.09 9.09 0 01-9.091 9.09zm72.727 0a9.091 9.091 0 01-9.091-9.09v-8.15h18.182v8.15a9.09 9.09 0 01-9.091 9.09z" fill="#C7CFE2"/><path d="M90.909 65.517H72.727l1.881-27.586h16.928l-.627 27.586zm36.364 0h-18.182l-.627-27.586h16.928l1.881 27.586zm-72.728 0H36.364l4.388-27.586H57.68l-3.135 27.586zm-36.363 0H0l6.896-27.586h16.929l-5.643 27.586zm145.454 0h-18.181l-3.135-27.586h16.928l4.388 27.586z" fill="#DA498C"/><path d="M72.727 65.517H54.545l3.135-27.586h16.928l-1.88 27.586zm72.728 0h-18.182l-1.881-27.586h16.928l3.135 27.586z" fill="#EFF2FA"/><path d="M200 65.517h-18.182l-5.643-27.586h16.929L200 65.517z" fill="#DA498C"/><path d="M181.818 65.517h-18.182l-4.388-27.586h16.927l5.643 27.586zm-145.454 0H18.182l5.643-27.586h16.927l-4.388 27.586zm72.727 0H90.909l.627-27.586h16.928l.627 27.586z" fill="#EFF2FA"/><path d="M117.241 106.896v62.07H27.586v-62.07h89.655zM120.69 100H24.138a3.449 3.449 0 00-3.449 3.448v68.966a3.45 3.45 0 003.449 3.449h96.551a3.45 3.45 0 003.449-3.449v-68.966A3.448 3.448 0 00120.69 100zm55.172 0h-41.379a3.45 3.45 0 00-3.449 3.448v86.207h48.276v-86.207a3.448 3.448 0 00-3.448-3.448zm-3.448 68.966h-34.483v-62.07h34.483v62.07zM155.172 37.93H44.828a6.896 6.896 0 01-6.897-6.896V10.345a6.896 6.896 0 016.897-6.897h110.345a6.896 6.896 0 016.896 6.897v20.69a6.896 6.896 0 01-6.897 6.896z" fill="#8F96AC"/><path d="M153.448 31.034H46.552a1.724 1.724 0 01-1.725-1.724V12.07c0-.953.772-1.725 1.725-1.725h106.896c.952 0 1.724.772 1.724 1.724v17.242c0 .952-.772 1.723-1.724 1.723z" fill="#FFD164"/><path d="M46.552 31.034h106.896c.952 0 1.724-.771 1.724-1.724v-6.896c0 .952-.772 1.724-1.724 1.724H46.552a1.724 1.724 0 01-1.725-1.724v6.896c0 .953.773 1.724 1.725 1.724z" fill="#FFBC3D"/><path d="M198.276 196.551H1.724A1.724 1.724 0 010 194.827v-3.448c0-.953.772-1.724 1.724-1.724h196.552c.952 0 1.724.771 1.724 1.724v3.448c0 .953-.772 1.724-1.724 1.724z" fill="#8F96AC"/></svg>