<svg width="200" height="200" fill="none" xmlns="http://www.w3.org/2000/svg"><path d="M1.487 31.505C1.487 13.951 15.844-.25 33.457.003c17.06.246 30.932 14.237 31.04 31.299.06 9.555-4.134 18.13-10.799 23.947a1.368 1.368 0 00.202 2.21l5.936 3.512c.96.568.557 2.04-.558 2.04l-26.882-.008c-17.125-.318-30.91-14.297-30.91-31.498z" fill="#DA498C"/><path d="M59.836 60.971l-5.937-3.512a1.365 1.365 0 01-.21-2.202c6.74-5.878 10.957-14.579 10.804-24.26C64.23 14.248 50.674.501 33.932.013a31.75 31.75 0 00-6.925.554c14.472 2.774 25.5 15.53 25.597 30.734a31.368 31.368 0 01-6.624 19.53c-2.53 3.251-1.708 7.967 1.838 10.065l.125.074c.949.561.564 2.004-.523 2.036l11.857.002c1.116.001 1.519-1.47.559-2.038z" fill="#B8467A"/><path d="M154.997 114.357H83.526c-17.851 0-27.62-20.803-16.219-34.539l.634-.764a33.714 33.714 0 007.772-21.532V43.74C75.713 19.583 95.297 0 119.453 0c24.158 0 43.74 19.583 43.74 43.74v14.247a33.712 33.712 0 007.926 21.717c11.543 13.707 1.799 34.653-16.122 34.653z" fill="#C59191"/><path d="M192.566 149.777v47.25H45.957v-46.894a26.384 26.384 0 0116.145-24.317l23.667-10.289 7.97-3.464a16.56 16.56 0 009.956-15.188v-3.059h31.129v2.903a16.562 16.562 0 0010.039 15.219l32.012 13.722a26.378 26.378 0 0115.691 24.117z" fill="#fff"/><path d="M85.768 126.793a113.463 113.463 0 0034.459 4.734 113.442 113.442 0 0032.528-5.362l3.86-9.19-11.753-5.037a16.562 16.562 0 01-10.036-15.22v-2.9h-31.129v3.057c0 6.593-3.91 12.558-9.956 15.186l-9.52 4.139 1.547 10.593z" fill="#FFCEBF"/><path d="M176.873 125.658l-24.114-10.335h-.004v81.704h39.812v-47.249a26.38 26.38 0 00-15.694-24.12zM85.77 115.527v81.5H45.956v-46.894a26.384 26.384 0 0116.145-24.317l23.667-10.289z" fill="#407093"/><path d="M130.052 110.903c3.581 0 6.994-.719 10.104-2.017a16.56 16.56 0 01-5.33-12.168v-2.9h-31.129v3.057c0 2.382-.513 4.68-1.45 6.77 4.714 4.494 11.091 7.258 18.117 7.258h9.688z" fill="#FFB09E"/><path d="M150.374 46.99v25.75c0 14.508-11.761 26.269-26.269 26.269h-9.687c-14.508 0-26.269-11.761-26.269-26.269V46.99c0-9.437 7.651-17.089 17.089-17.089h28.047c9.438 0 17.089 7.652 17.089 17.09z" fill="#FFCEBF"/><path d="M150.374 60.388c-.012.035-.026.07-.037.106-.949 3.28-3.442 9.474-9.464 14.118-2.804 2.163-6.003 3.726-9.507 4.645a2.974 2.974 0 001.509 5.752c4.278-1.123 8.191-3.036 11.629-5.688a31.84 31.84 0 005.853-5.887c.006-.23.017-.46.017-.692V60.388z" fill="#7A6D79"/><path d="M128.105 87.476h-6.967a5.743 5.743 0 110-11.485h6.967a5.743 5.743 0 110 11.485z" fill="#685E68"/><path d="M125.469 23.085c.667-8.414 8.723-13.998 16.433-16.89 12.753 7.641 21.291 21.595 21.291 37.544v3.008c-.705.148-1.406.277-2.1.38-4.247.635-7.864.36-10.335 0-15.923-2.12-26.095-13.88-25.289-24.042z" fill="#B98080"/><path d="M119.454 0a43.54 43.54 0 0126.312 8.799c-3.652 6.356-12.04 18.922-27.768 28.225-11.675 6.907-22.685 9.228-29.464 10.104h-12.82v-3.389C75.714 19.584 95.296 0 119.454 0z" fill="#C59191"/><path d="M168.348 197.027H73.171l-5.25-49.522a5.947 5.947 0 015.913-6.573h93.851a5.946 5.946 0 015.913 6.573l-5.25 49.522z" fill="#EFEDEF"/><path d="M167.684 140.932h-11.892a5.946 5.946 0 015.913 6.573l-5.25 49.522h11.893l5.25-49.522a5.947 5.947 0 00-5.914-6.573z" fill="#E5E1E5"/><path d="M197.07 200H2.93a2.93 2.93 0 010-5.859h194.14a2.929 2.929 0 110 5.859z" fill="#8F96AC"/><path d="M120.759 177.304a8.325 8.325 0 100-16.65 8.325 8.325 0 000 16.65z" fill="#DA498C"/><path d="M21.1 34.478a2.973 2.973 0 100-5.946 2.973 2.973 0 000 5.946zm11.892 0a2.973 2.973 0 100-5.946 2.973 2.973 0 000 5.946zm11.893 0a2.973 2.973 0 100-5.946 2.973 2.973 0 000 5.946z" fill="#fff"/></svg>