<svg width="200" height="200" fill="none" xmlns="http://www.w3.org/2000/svg"><g clip-path="url(#clip0)"><path d="M150.133 156.776l2.053-6.631V8.225a3.686 3.686 0 00-3.685-3.685H51.508a3.686 3.686 0 00-3.686 3.686v141.919l2.053 6.631h100.258z" fill="#407093"/><path d="M47.822 150.145v25.545a3.686 3.686 0 003.686 3.686H148.5a3.686 3.686 0 003.686-3.686v-25.545H47.822z" fill="#DAE7EF"/><path d="M148.5 4.54h-9.907v152.236h11.54l2.053-6.631V8.225A3.686 3.686 0 00148.5 4.54z" fill="#2B4D66"/><path d="M138.593 150.145v11.951a3.686 3.686 0 01-3.686 3.686H47.822v9.908a3.686 3.686 0 003.686 3.686H148.5a3.686 3.686 0 003.686-3.686v-25.545h-13.593z" fill="#C1D5E4"/><path d="M148.5 182.456H51.507a6.773 6.773 0 01-6.765-6.766V8.226a6.774 6.774 0 016.766-6.766H148.5a6.773 6.773 0 016.766 6.766V175.69a6.773 6.773 0 01-6.766 6.766zM51.507 7.62a.606.606 0 00-.605.606V175.69c0 .334.271.605.605.605H148.5a.605.605 0 00.605-.605V8.226a.606.606 0 00-.605-.606H51.507z" fill="#98B9D3"/><path d="M198.923 158.268a24.912 24.912 0 00-.525-2.442l-12.167-46.079a23.756 23.756 0 00-4.928-9.392 23.724 23.724 0 01-3.645-5.757l-19.437-43.456a7.612 7.612 0 00-2.955-3.373v42.23l2.185 6.982a12.28 12.28 0 01.562 3.7l-.032 20.467a9.037 9.037 0 01-9.036 9.021h-.045a9.424 9.424 0 01-7.332-3.611c-3.147-4.015-7.813-9.981-7.813-9.981-2.632-3.39-6.848-5.501-11.144-5.51a14.296 14.296 0 00-9.014 3.045 4.385 4.385 0 00-.753 6.157l19.517 24.957c1.098 1.404 1.647 3.143 1.652 4.926a16.256 16.256 0 0012.741 15.829l8.481 1.879a1.841 1.841 0 011.444 1.799v25.23a3.652 3.652 0 003.652 3.651l36.017-.073a3.65 3.65 0 003.651-3.651v-22.927a86.534 86.534 0 00-1.076-13.621z" fill="#FFCEBF"/><path d="M69.996 44.16a8.058 8.058 0 100-16.116 8.058 8.058 0 000 16.116z" fill="#DA498C"/><path d="M129.692 44.16a8.059 8.059 0 100-16.117 8.059 8.059 0 000 16.117z" fill="#B8467A"/><path d="M69.996 71.541a8.058 8.058 0 100-16.116 8.058 8.058 0 000 16.116zM99.593 98.51a8.058 8.058 0 100-16.116 8.058 8.058 0 000 16.117z" fill="#DA498C"/><path d="M96.79 29.856l-5.247 9.09c-1.246 2.157.311 4.854 2.802 4.854h10.496c2.491 0 4.048-2.697 2.802-4.854l-5.247-9.09c-1.246-2.157-4.36-2.157-5.605 0zm30.1 27.381l-5.247 9.09c-1.246 2.157.311 4.853 2.802 4.853h10.496c2.491 0 4.048-2.696 2.802-4.854l-5.248-9.089c-1.245-2.157-4.359-2.157-5.605 0zM67.193 84.618l-5.247 9.089c-1.246 2.157.311 4.854 2.802 4.854h10.496c2.49 0 4.048-2.697 2.802-4.854l-5.248-9.09c-1.245-2.157-4.36-2.157-5.605 0z" fill="#FFD164"/><path d="M109.938 169.126H90.07a3.08 3.08 0 110-6.16h19.868a3.08 3.08 0 010 6.16z" fill="#DA498C"/><path d="M137.511 98.561h-15.637a1.953 1.953 0 01-1.953-1.953v-9.403c0-1.079.874-1.953 1.953-1.953h15.637c1.079 0 1.953.874 1.953 1.953v9.403a1.953 1.953 0 01-1.953 1.953zm-30.095-28.423H91.779a1.953 1.953 0 01-1.954-1.954v-9.403c0-1.078.875-1.953 1.954-1.953h15.637c1.079 0 1.953.875 1.953 1.953v9.403a1.953 1.953 0 01-1.953 1.954z" fill="#61A2F9"/><path d="M198.923 158.268a24.912 24.912 0 00-.525-2.442l-12.167-46.079a23.756 23.756 0 00-4.928-9.392 23.724 23.724 0 01-3.645-5.757l-19.437-43.456a7.612 7.612 0 00-2.955-3.373v16.468l13.58 30.361a23.77 23.77 0 003.645 5.757 23.752 23.752 0 014.929 9.392l12.166 46.079c.213.806.394 1.619.525 2.442a86.636 86.636 0 011.077 13.621v22.927a3.65 3.65 0 01-3.651 3.651l-27.544.056c.111.01.224.017.338.017l36.018-.073a3.652 3.652 0 003.651-3.651v-22.927c0-4.562-.36-9.116-1.077-13.621z" fill="#FFB09E"/><path d="M86.402 114.111a14.294 14.294 0 00-9.014-3.044c-4.295.009-8.511 2.12-11.143 5.51 0 0-4.666 5.966-7.813 9.981a9.423 9.423 0 01-7.332 3.61h-.046a9.035 9.035 0 01-9.035-9.02l-.033-20.468a12.314 12.314 0 01.563-3.7l2.193-7.006v-42.21a7.618 7.618 0 00-2.963 3.378L22.343 94.598a23.75 23.75 0 01-3.646 5.757 23.761 23.761 0 00-4.928 9.392l-12.167 46.08a24.934 24.934 0 00-.525 2.441A86.68 86.68 0 000 171.889v22.927a3.652 3.652 0 003.652 3.652l36.017.072a3.651 3.651 0 003.651-3.651v-25.23c0-.864.6-1.613 1.444-1.799l8.482-1.879a16.258 16.258 0 0012.74-15.829c.005-1.783.554-3.522 1.653-4.926l19.517-24.957a4.387 4.387 0 00-.754-6.158z" fill="#FFCEBF"/><path d="M86.402 114.111A14.318 14.318 0 0082 111.767a4.381 4.381 0 01-.673 1.225L61.81 137.948c-1.098 1.405-1.647 3.144-1.652 4.927a16.258 16.258 0 01-12.74 15.829l-10.99 2.844a1.842 1.842 0 00-1.445 1.799v35.184l4.686.009a3.652 3.652 0 003.651-3.651v-25.23c0-.864.6-1.613 1.444-1.799l8.482-1.879a16.258 16.258 0 0012.74-15.829c.005-1.783.554-3.522 1.653-4.927l19.516-24.956a4.387 4.387 0 00-.753-6.158z" fill="#FFB09E"/></g><defs><clipPath id="clip0"><path fill="#fff" d="M0 0h200v200H0z"/></clipPath></defs></svg>