<svg width="200" height="200" fill="none" xmlns="http://www.w3.org/2000/svg"><g clip-path="url(#clip0)" fill-rule="evenodd" clip-rule="evenodd"><path d="M134.483 0h13.793c5.713 0 10.345 4.632 10.345 10.345V179.31c0 5.714-4.632 10.345-10.345 10.345H51.724c-5.713 0-10.345-4.631-10.345-10.345V10.345C41.38 4.632 46.011 0 51.724 0h82.759z" fill="#A0D2F0"/><path d="M158.621 172.414v17.241c0 5.713-4.632 10.345-10.345 10.345H51.724c-5.713 0-10.345-4.632-10.345-10.345v-17.241c0 5.713 4.632 10.345 10.345 10.345h96.552c5.713 0 10.345-4.632 10.345-10.345z" fill="#407093"/><path d="M158.621 10.345v3.448S44.345 20.517 41.448 173.31a3.927 3.927 0 01-.069-.896V10.344C41.38 4.633 46.011 0 51.724 0h13.793l9.862 10.517a10.307 10.307 0 007.552 3.276h34.138a10.307 10.307 0 007.552-3.276L134.483 0h13.793c5.713 0 10.345 4.632 10.345 10.345z" fill="#B4E1FA"/><path d="M134.483 0l-9.862 10.517a10.307 10.307 0 01-7.552 3.276H82.931a10.307 10.307 0 01-7.552-3.276L65.517 0h68.966z" fill="#407093"/><path d="M44.434 26.155L54.78 50.372a3.32 3.32 0 001.752 1.752L80.748 62.47a3.32 3.32 0 010 6.11L56.531 78.924a3.32 3.32 0 00-1.752 1.752l-10.345 24.217a3.32 3.32 0 01-6.11 0L27.98 80.676a3.32 3.32 0 00-1.752-1.752L2.01 68.58a3.32 3.32 0 010-6.11l24.217-10.345a3.321 3.321 0 001.752-1.752l10.345-24.217a3.32 3.32 0 016.11 0zm117.242 58.621l10.345 24.217a3.32 3.32 0 001.751 1.752l24.218 10.345a3.32 3.32 0 010 6.11l-24.218 10.345a3.32 3.32 0 00-1.751 1.752l-10.345 24.217a3.32 3.32 0 01-6.111 0l-10.344-24.217a3.321 3.321 0 00-1.752-1.752L119.252 127.2a3.32 3.32 0 010-6.11l24.217-10.345a3.321 3.321 0 001.752-1.752l10.344-24.217a3.321 3.321 0 016.111 0zm-39.204-56.014l6.031 14.138c.197.466.569.837 1.035 1.035l14.138 6.03a1.939 1.939 0 010 3.566l-14.138 6.031a1.946 1.946 0 00-1.035 1.035l-6.031 14.137a1.937 1.937 0 01-3.565 0l-6.031-14.137a1.943 1.943 0 00-1.035-1.035l-14.138-6.031a1.938 1.938 0 010-3.566l14.138-6.03a1.944 1.944 0 001.035-1.035l6.031-14.138a1.937 1.937 0 013.565 0z" fill="#DA498C"/><path d="M81.093 121.866l6.031 14.138c.197.466.568.837 1.035 1.034l14.138 6.031a1.939 1.939 0 010 3.566l-14.138 6.031a1.945 1.945 0 00-1.035 1.034l-6.03 14.138a1.939 1.939 0 01-3.566 0L71.496 153.7a1.945 1.945 0 00-1.034-1.034l-14.138-6.031a1.94 1.94 0 010-3.566l14.138-6.031a1.945 1.945 0 001.034-1.034l6.032-14.138a1.937 1.937 0 013.565 0z" fill="#B8467A"/></g><defs><clipPath id="clip0"><path fill="#fff" d="M0 0h200v200H0z"/></clipPath></defs></svg>