<svg width="182" height="20" xmlns="http://www.w3.org/2000/svg"><path d="M15.839 2.959a60.11 60.11 0 00-2.543-.46 23.812 23.812 0 00-3.085-.27c-1.19.017-2.218.198-3.084.54-.866.343-1.578.839-2.137 1.488-.541.632-.947 1.39-1.218 2.273-.27.884-.405 1.858-.405 2.922 0 1.37.171 2.543.514 3.517.36.974.847 1.776 1.46 2.408a5.881 5.881 0 002.192 1.352 8.1 8.1 0 002.678.433c.614 0 1.164-.036 1.65-.108.506-.072.939-.153 1.3-.243a9.716 9.716 0 001.027-.352v-4.951h-3.381v-2.03h5.681v8.09c-.631.415-1.506.794-2.624 1.136-1.1.325-2.318.478-3.653.46a14.33 14.33 0 01-3.544-.433 7.756 7.756 0 01-3.003-1.515c-.865-.74-1.56-1.74-2.083-3.003-.523-1.262-.784-2.858-.784-4.788 0-1.57.243-2.931.73-4.085.487-1.173 1.145-2.138 1.975-2.895A8.268 8.268 0 016.424.713 10.52 10.52 0 019.968.118c.812 0 1.596.045 2.354.135.757.072 1.452.163 2.083.27.631.091 1.235.208 1.812.353l-.378 2.083zM24.993.362h2.814l6.33 18.45h-2.353l-1.623-4.923h-7.494l-1.65 4.924h-2.354L24.993.361zm4.437 11.362l-2.976-9.198h-.08l-3.004 9.198h6.06zm9.885 5.005h3.652a9.91 9.91 0 002.787-.378 5.998 5.998 0 002.3-1.218c.666-.577 1.19-1.325 1.568-2.245.379-.92.568-2.038.568-3.355 0-1.227-.171-2.282-.514-3.165-.342-.902-.83-1.642-1.46-2.219-.614-.577-1.371-1-2.273-1.271-.884-.289-1.876-.433-2.976-.433h-3.652v14.284zM37.041.362h5.925c1.46 0 2.777.18 3.95.54 1.19.361 2.21.92 3.057 1.678.848.757 1.497 1.713 1.948 2.868.469 1.154.703 2.516.703 4.085 0 1.587-.252 2.967-.757 4.14-.505 1.153-1.19 2.118-2.056 2.894-.866.758-1.885 1.326-3.057 1.704-1.173.361-2.435.541-3.788.541h-5.925V.363zm33.38 2.597a60.11 60.11 0 00-2.542-.46 23.812 23.812 0 00-3.085-.27c-1.19.017-2.218.198-3.084.54-.865.343-1.578.839-2.137 1.488-.541.632-.947 1.39-1.218 2.273-.27.884-.405 1.858-.405 2.922 0 1.37.171 2.543.514 3.517.36.974.847 1.776 1.46 2.408a5.88 5.88 0 002.192 1.352 8.09 8.09 0 002.678.433c.614 0 1.164-.036 1.65-.108.506-.072.939-.153 1.3-.243a9.714 9.714 0 001.027-.352v-4.951H65.39v-2.03h5.681v8.09c-.631.415-1.506.794-2.624 1.136-1.1.325-2.318.478-3.653.46a14.33 14.33 0 01-3.544-.433 7.756 7.756 0 01-3.003-1.515c-.865-.74-1.56-1.74-2.083-3.003-.523-1.262-.784-2.858-.784-4.788 0-1.57.243-2.931.73-4.085.487-1.173 1.145-2.138 1.975-2.895A8.267 8.267 0 0161.008.713a10.52 10.52 0 013.544-.595c.812 0 1.596.045 2.354.135.757.072 1.452.163 2.083.27a18.02 18.02 0 011.813.353l-.38 2.083zM75.115.362h11.308v2.083h-9.036v5.898h8.387v2.029h-8.387v6.357h9.307v2.084h-11.58V.361zm19.14 2.11h-5.79V.362h13.851v2.11h-5.79v16.34h-2.272V2.473zm20.341.433a25.24 25.24 0 00-1.353-.298c-.415-.09-.893-.162-1.434-.216a12.077 12.077 0 00-1.65-.109c-1.335 0-2.291.208-2.868.623-.577.396-.865 1.019-.865 1.866.018.668.261 1.236.73 1.705.469.45 1.055.875 1.759 1.271.703.38 1.469.758 2.299 1.137.848.36 1.623.784 2.327 1.271a6.792 6.792 0 011.758 1.678c.487.63.731 1.406.731 2.326 0 1.064-.235 1.921-.704 2.57a4.668 4.668 0 01-1.731 1.515 7.471 7.471 0 01-2.327.73c-.829.127-1.623.19-2.38.19-.722 0-1.38-.045-1.975-.135a16.86 16.86 0 01-1.543-.298 11.18 11.18 0 01-1.379-.433l.541-2.19c.415.18.856.333 1.325.459.415.108.875.207 1.38.298.523.09 1.073.135 1.651.135.703 0 1.343-.045 1.92-.135.596-.09 1.11-.235 1.542-.433.433-.199.767-.46 1.001-.785.253-.325.379-.721.379-1.19-.018-.704-.252-1.272-.703-1.705-.433-.45-1.019-.874-1.759-1.271a26.04 26.04 0 00-2.353-1.19 14.864 14.864 0 01-2.3-1.3 7.422 7.422 0 01-1.786-1.73c-.469-.668-.703-1.498-.703-2.49 0-.577.099-1.145.298-1.704a3.684 3.684 0 011.001-1.488c.487-.433 1.109-.785 1.866-1.055.776-.27 1.732-.406 2.868-.406.649 0 1.263.036 1.84.108.595.054 1.109.117 1.542.19.505.09.983.189 1.434.297l-.379 2.192zm8.667-.433h-5.79V.362h13.852v2.11h-5.789v16.34h-2.273V2.473zm9.292 7.115c0-1.75.27-3.228.811-4.437.559-1.208 1.263-2.182 2.111-2.922a8.05 8.05 0 012.867-1.596 10.116 10.116 0 013.112-.514c1.01 0 2.038.144 3.084.433 1.064.27 2.02.766 2.867 1.488.866.703 1.57 1.668 2.111 2.895.559 1.226.838 2.786.838 4.68 0 1.768-.279 3.256-.838 4.464-.541 1.209-1.245 2.191-2.111 2.949a7.886 7.886 0 01-2.867 1.65 10.37 10.37 0 01-3.084.487 10.64 10.64 0 01-3.112-.487 8.053 8.053 0 01-2.867-1.596c-.848-.74-1.552-1.722-2.111-2.949-.541-1.226-.811-2.741-.811-4.545zm15.231.135c0-2.435-.568-4.283-1.704-5.546-1.118-1.262-2.624-1.894-4.518-1.894-.956 0-1.831.154-2.624.46a5.437 5.437 0 00-2.03 1.326c-.559.595-1.001 1.344-1.325 2.245-.307.884-.46 1.93-.46 3.139 0 2.435.559 4.301 1.677 5.6 1.137 1.299 2.652 1.948 4.545 1.948.938 0 1.804-.144 2.598-.433a5.29 5.29 0 002.029-1.38c.577-.613 1.019-1.37 1.325-2.272.325-.902.487-1.966.487-3.193zm6.325-9.36h4.545c.992 0 1.894.09 2.705.27.83.162 1.534.451 2.111.866a3.833 3.833 0 011.325 1.596c.307.667.46 1.506.46 2.516-.018 1.118-.207 2.03-.568 2.733-.361.685-.802 1.244-1.326 1.677a5.217 5.217 0 01-1.812.92v.054c.072.072.18.207.324.406.163.18.298.342.406.487l5.222 6.925h-2.679l-5.356-7.331h-3.085v7.332h-2.272V.361zm8.847 5.627c0-.758-.1-1.37-.298-1.84-.18-.487-.46-.857-.839-1.11-.36-.252-.811-.423-1.352-.513a11.274 11.274 0 00-1.84-.135h-2.246v7.06h2.679c.703 0 1.298-.09 1.785-.27.487-.18.884-.424 1.191-.73a3.07 3.07 0 00.676-1.11c.144-.414.226-.865.244-1.352zm6.82-5.627h11.308v2.083h-9.036v5.898h8.387v2.029h-8.387v6.357h9.307v2.084h-11.579V.361z"/></svg>